G04 (created by PCBNEW (2013-07-07 BZR 4022)-stable) date 2/6/2016 8:58:51 PM*
%MOIN*%
G04 Gerber Fmt 3.4, Leading zero omitted, Abs format*
%FSLAX34Y34*%
G01*
G70*
G90*
G04 APERTURE LIST*
%ADD10C,0.00590551*%
%ADD11R,0.035X0.055*%
%ADD12R,0.055X0.035*%
%ADD13R,0.06X0.08*%
%ADD14C,0.075*%
%ADD15R,0.075X0.075*%
%ADD16C,0.027*%
%ADD17C,0.02*%
%ADD18C,0.008*%
G04 APERTURE END LIST*
G54D10*
G54D11*
X-2375Y-1100D03*
X-1625Y-1100D03*
X-825Y-1100D03*
X-75Y-1100D03*
X-75Y-2200D03*
X675Y-2200D03*
G54D12*
X7750Y-1875D03*
X7750Y-2625D03*
G54D13*
X6700Y-2200D03*
X5400Y-2200D03*
X-1100Y-2200D03*
X-2400Y-2200D03*
G54D14*
X-5950Y-2750D03*
X-4950Y-2750D03*
X-3950Y-2750D03*
G54D15*
X10500Y-1000D03*
G54D14*
X10500Y-2000D03*
X10500Y-3000D03*
X10500Y-4000D03*
G54D15*
X-6500Y0D03*
G54D14*
X-5500Y0D03*
X-4500Y0D03*
X-3500Y0D03*
X-2500Y0D03*
X-1500Y0D03*
X-500Y0D03*
X500Y0D03*
X1500Y0D03*
X2500Y0D03*
X3500Y0D03*
X4500Y0D03*
X5500Y0D03*
X6500Y0D03*
X7500Y0D03*
X8500Y0D03*
X9500Y0D03*
X10500Y0D03*
X-5950Y-1750D03*
X-4950Y-1750D03*
X-3950Y-1750D03*
G54D16*
X7500Y-4000D03*
X-1500Y-4000D03*
X4500Y-4000D03*
X700Y-1700D03*
X-1000Y-2950D03*
X500Y-3050D03*
X3200Y-1250D03*
X-2800Y-1250D03*
X8800Y-3450D03*
X8900Y-1000D03*
X2750Y-3450D03*
X-2500Y-2950D03*
X7700Y-3000D03*
G54D17*
X4500Y-4000D02*
X7500Y-4000D01*
X4500Y-4000D02*
X-1500Y-4000D01*
X675Y-2200D02*
X675Y-1725D01*
X675Y-1725D02*
X700Y-1700D01*
X-1100Y-2850D02*
X-1100Y-2200D01*
X-1000Y-2950D02*
X-1100Y-2850D01*
X-1100Y-2200D02*
X-75Y-2200D01*
X-75Y-1100D02*
X-75Y-2200D01*
X-1100Y-2450D02*
X-1100Y-2200D01*
X-1100Y-2450D02*
X-1100Y-2200D01*
X-4500Y0D02*
X-4500Y-650D01*
X-4500Y-650D02*
X-4950Y-1100D01*
X-4950Y-1750D02*
X-4950Y-1100D01*
X-4950Y-1750D02*
X-4950Y-2750D01*
X500Y-3050D02*
X1050Y-3050D01*
X1500Y-2400D02*
X1500Y-2600D01*
X1500Y-2600D02*
X1050Y-3050D01*
X1500Y-2400D02*
X1500Y0D01*
X-1625Y-1100D02*
X-1625Y-125D01*
X-1625Y-125D02*
X-1500Y0D01*
X-1625Y-1100D02*
X-825Y-1100D01*
X9500Y0D02*
X9500Y-100D01*
X8825Y-1875D02*
X7750Y-1875D01*
X9350Y-1350D02*
X8825Y-1875D01*
X9350Y-250D02*
X9350Y-1350D01*
X9500Y-100D02*
X9350Y-250D01*
X7750Y-1875D02*
X7025Y-1875D01*
X7025Y-1875D02*
X6700Y-2200D01*
X-3950Y-2750D02*
X-3950Y-3200D01*
X-2800Y-4350D02*
X-2150Y-4350D01*
X-3950Y-3200D02*
X-2800Y-4350D01*
X10500Y0D02*
X10350Y0D01*
X9850Y-3650D02*
X9150Y-4350D01*
X9150Y-4350D02*
X-2150Y-4350D01*
X10350Y0D02*
X9850Y-500D01*
X9850Y-500D02*
X9850Y-3650D01*
X-3950Y-2750D02*
X-3950Y-1750D01*
X-2400Y-2850D02*
X-2400Y-2200D01*
X-2500Y-2950D02*
X-2400Y-2850D01*
X-5500Y0D02*
X-5500Y-650D01*
X-5500Y-650D02*
X-5950Y-1100D01*
X-5950Y-1750D02*
X-5950Y-1100D01*
X7750Y-2625D02*
X7750Y-2950D01*
X7750Y-2950D02*
X7700Y-3000D01*
X-5950Y-1750D02*
X-5950Y-2750D01*
G54D10*
G36*
X9633Y-480D02*
X9630Y-500D01*
X9630Y-3558D01*
X9058Y-4130D01*
X8145Y-4130D01*
X8145Y-2776D01*
X8145Y-2426D01*
X8126Y-2382D01*
X8093Y-2348D01*
X8048Y-2330D01*
X8001Y-2329D01*
X7451Y-2329D01*
X7407Y-2348D01*
X7373Y-2381D01*
X7355Y-2426D01*
X7354Y-2473D01*
X7354Y-2823D01*
X7373Y-2867D01*
X7406Y-2901D01*
X7451Y-2919D01*
X7457Y-2919D01*
X7445Y-2949D01*
X7444Y-3050D01*
X7483Y-3144D01*
X7555Y-3216D01*
X7649Y-3254D01*
X7750Y-3255D01*
X7844Y-3216D01*
X7916Y-3144D01*
X7954Y-3050D01*
X7954Y-3025D01*
X7954Y-3025D01*
X7970Y-2950D01*
X7970Y-2920D01*
X8048Y-2920D01*
X8092Y-2901D01*
X8126Y-2868D01*
X8144Y-2823D01*
X8145Y-2776D01*
X8145Y-4130D01*
X7722Y-4130D01*
X7754Y-4050D01*
X7755Y-3949D01*
X7716Y-3855D01*
X7644Y-3783D01*
X7550Y-3745D01*
X7449Y-3744D01*
X7364Y-3780D01*
X5820Y-3780D01*
X5820Y-2576D01*
X5820Y-1823D01*
X5819Y-1776D01*
X5801Y-1731D01*
X5767Y-1698D01*
X5723Y-1679D01*
X5465Y-1680D01*
X5435Y-1710D01*
X5435Y-2165D01*
X5790Y-2165D01*
X5820Y-2135D01*
X5820Y-1823D01*
X5820Y-2576D01*
X5820Y-2265D01*
X5790Y-2235D01*
X5435Y-2235D01*
X5435Y-2690D01*
X5465Y-2720D01*
X5723Y-2720D01*
X5767Y-2701D01*
X5801Y-2668D01*
X5819Y-2623D01*
X5820Y-2576D01*
X5820Y-3780D01*
X5365Y-3780D01*
X5365Y-2690D01*
X5365Y-2235D01*
X5365Y-2165D01*
X5365Y-1710D01*
X5335Y-1680D01*
X5076Y-1679D01*
X5032Y-1698D01*
X4998Y-1731D01*
X4980Y-1776D01*
X4979Y-1823D01*
X4980Y-2135D01*
X5010Y-2165D01*
X5365Y-2165D01*
X5365Y-2235D01*
X5010Y-2235D01*
X4980Y-2265D01*
X4979Y-2576D01*
X4980Y-2623D01*
X4998Y-2668D01*
X5032Y-2701D01*
X5076Y-2720D01*
X5335Y-2720D01*
X5365Y-2690D01*
X5365Y-3780D01*
X4635Y-3780D01*
X4550Y-3745D01*
X4449Y-3744D01*
X4364Y-3780D01*
X220Y-3780D01*
X220Y-2451D01*
X220Y-1901D01*
X201Y-1857D01*
X168Y-1823D01*
X145Y-1813D01*
X145Y-1486D01*
X167Y-1476D01*
X201Y-1443D01*
X219Y-1398D01*
X220Y-1351D01*
X220Y-801D01*
X201Y-757D01*
X168Y-723D01*
X123Y-705D01*
X76Y-704D01*
X-273Y-704D01*
X-317Y-723D01*
X-351Y-756D01*
X-369Y-801D01*
X-370Y-848D01*
X-370Y-1398D01*
X-351Y-1442D01*
X-318Y-1476D01*
X-295Y-1486D01*
X-295Y-1813D01*
X-317Y-1823D01*
X-351Y-1856D01*
X-369Y-1901D01*
X-370Y-1948D01*
X-370Y-1980D01*
X-679Y-1980D01*
X-679Y-1776D01*
X-698Y-1732D01*
X-731Y-1698D01*
X-776Y-1680D01*
X-823Y-1679D01*
X-1423Y-1679D01*
X-1467Y-1698D01*
X-1501Y-1731D01*
X-1519Y-1776D01*
X-1520Y-1823D01*
X-1520Y-2623D01*
X-1501Y-2667D01*
X-1468Y-2701D01*
X-1423Y-2719D01*
X-1376Y-2720D01*
X-1320Y-2720D01*
X-1320Y-2850D01*
X-1303Y-2934D01*
X-1255Y-3005D01*
X-1251Y-3010D01*
X-1216Y-3094D01*
X-1144Y-3166D01*
X-1050Y-3204D01*
X-949Y-3205D01*
X-855Y-3166D01*
X-783Y-3094D01*
X-745Y-3000D01*
X-744Y-2899D01*
X-783Y-2805D01*
X-855Y-2733D01*
X-880Y-2723D01*
X-880Y-2720D01*
X-776Y-2720D01*
X-732Y-2701D01*
X-698Y-2668D01*
X-680Y-2623D01*
X-679Y-2576D01*
X-679Y-2420D01*
X-370Y-2420D01*
X-370Y-2498D01*
X-351Y-2542D01*
X-318Y-2576D01*
X-273Y-2594D01*
X-226Y-2595D01*
X123Y-2595D01*
X167Y-2576D01*
X201Y-2543D01*
X219Y-2498D01*
X220Y-2451D01*
X220Y-3780D01*
X-1364Y-3780D01*
X-1449Y-3745D01*
X-1550Y-3744D01*
X-1644Y-3783D01*
X-1716Y-3855D01*
X-1754Y-3949D01*
X-1755Y-4050D01*
X-1722Y-4130D01*
X-1979Y-4130D01*
X-1979Y-2576D01*
X-1979Y-1776D01*
X-1998Y-1732D01*
X-2002Y-1728D01*
X-2002Y-83D01*
X-2008Y113D01*
X-2072Y267D01*
X-2140Y309D01*
X-2450Y0D01*
X-2140Y-309D01*
X-2072Y-267D01*
X-2002Y-83D01*
X-2002Y-1728D01*
X-2031Y-1698D01*
X-2076Y-1680D01*
X-2079Y-1680D01*
X-2079Y-1351D01*
X-2079Y-848D01*
X-2080Y-801D01*
X-2098Y-756D01*
X-2132Y-723D01*
X-2176Y-704D01*
X-2190Y-704D01*
X-2190Y-359D01*
X-2500Y-49D01*
X-2549Y-98D01*
X-2549Y0D01*
X-2859Y309D01*
X-2927Y267D01*
X-2997Y83D01*
X-2991Y-113D01*
X-2927Y-267D01*
X-2859Y-309D01*
X-2549Y0D01*
X-2549Y-98D01*
X-2809Y-359D01*
X-2767Y-427D01*
X-2583Y-497D01*
X-2386Y-491D01*
X-2232Y-427D01*
X-2190Y-359D01*
X-2190Y-704D01*
X-2310Y-705D01*
X-2340Y-735D01*
X-2340Y-1065D01*
X-2110Y-1065D01*
X-2080Y-1035D01*
X-2079Y-848D01*
X-2079Y-1351D01*
X-2080Y-1165D01*
X-2110Y-1135D01*
X-2340Y-1135D01*
X-2340Y-1465D01*
X-2310Y-1495D01*
X-2176Y-1495D01*
X-2132Y-1476D01*
X-2098Y-1443D01*
X-2080Y-1398D01*
X-2079Y-1351D01*
X-2079Y-1680D01*
X-2123Y-1679D01*
X-2410Y-1679D01*
X-2410Y-1465D01*
X-2410Y-1135D01*
X-2410Y-1065D01*
X-2410Y-735D01*
X-2440Y-705D01*
X-2573Y-704D01*
X-2617Y-723D01*
X-2651Y-756D01*
X-2669Y-801D01*
X-2670Y-848D01*
X-2670Y-1035D01*
X-2640Y-1065D01*
X-2410Y-1065D01*
X-2410Y-1135D01*
X-2640Y-1135D01*
X-2670Y-1165D01*
X-2670Y-1351D01*
X-2669Y-1398D01*
X-2651Y-1443D01*
X-2617Y-1476D01*
X-2573Y-1495D01*
X-2440Y-1495D01*
X-2410Y-1465D01*
X-2410Y-1679D01*
X-2723Y-1679D01*
X-2767Y-1698D01*
X-2801Y-1731D01*
X-2819Y-1776D01*
X-2820Y-1823D01*
X-2820Y-2623D01*
X-2801Y-2667D01*
X-2768Y-2701D01*
X-2723Y-2719D01*
X-2676Y-2720D01*
X-2620Y-2720D01*
X-2620Y-2723D01*
X-2644Y-2733D01*
X-2716Y-2805D01*
X-2754Y-2899D01*
X-2755Y-3000D01*
X-2716Y-3094D01*
X-2644Y-3166D01*
X-2550Y-3204D01*
X-2449Y-3205D01*
X-2355Y-3166D01*
X-2283Y-3094D01*
X-2248Y-3009D01*
X-2244Y-3005D01*
X-2196Y-2934D01*
X-2196Y-2934D01*
X-2180Y-2850D01*
X-2180Y-2850D01*
X-2180Y-2720D01*
X-2076Y-2720D01*
X-2032Y-2701D01*
X-1998Y-2668D01*
X-1980Y-2623D01*
X-1979Y-2576D01*
X-1979Y-4130D01*
X-2150Y-4130D01*
X-2708Y-4130D01*
X-3669Y-3169D01*
X-3530Y-3030D01*
X-3455Y-2848D01*
X-3454Y-2651D01*
X-3530Y-2469D01*
X-3669Y-2330D01*
X-3730Y-2305D01*
X-3730Y-2194D01*
X-3669Y-2169D01*
X-3530Y-2030D01*
X-3455Y-1848D01*
X-3454Y-1651D01*
X-3530Y-1469D01*
X-3669Y-1330D01*
X-3851Y-1255D01*
X-4048Y-1254D01*
X-4230Y-1330D01*
X-4369Y-1469D01*
X-4444Y-1651D01*
X-4445Y-1848D01*
X-4369Y-2030D01*
X-4230Y-2169D01*
X-4170Y-2194D01*
X-4170Y-2305D01*
X-4230Y-2330D01*
X-4369Y-2469D01*
X-4444Y-2651D01*
X-4445Y-2848D01*
X-4369Y-3030D01*
X-4230Y-3169D01*
X-4170Y-3194D01*
X-4170Y-3200D01*
X-4153Y-3284D01*
X-4105Y-3355D01*
X-3100Y-4360D01*
X-6860Y-4360D01*
X-6860Y-495D01*
X-6565Y-495D01*
X-6535Y-465D01*
X-6535Y-35D01*
X-6542Y-35D01*
X-6542Y35D01*
X-6535Y35D01*
X-6535Y42D01*
X-6465Y42D01*
X-6465Y35D01*
X-6035Y35D01*
X-6005Y65D01*
X-6004Y351D01*
X-6004Y360D01*
X-5839Y360D01*
X-5919Y280D01*
X-5994Y98D01*
X-5995Y-98D01*
X-5919Y-280D01*
X-5780Y-419D01*
X-5720Y-444D01*
X-5720Y-558D01*
X-6004Y-843D01*
X-6004Y-351D01*
X-6005Y-65D01*
X-6035Y-35D01*
X-6465Y-35D01*
X-6465Y-465D01*
X-6435Y-495D01*
X-6101Y-495D01*
X-6057Y-476D01*
X-6023Y-443D01*
X-6005Y-398D01*
X-6004Y-351D01*
X-6004Y-843D01*
X-6105Y-944D01*
X-6153Y-1015D01*
X-6170Y-1100D01*
X-6170Y-1305D01*
X-6230Y-1330D01*
X-6369Y-1469D01*
X-6444Y-1651D01*
X-6445Y-1848D01*
X-6369Y-2030D01*
X-6230Y-2169D01*
X-6170Y-2194D01*
X-6170Y-2305D01*
X-6230Y-2330D01*
X-6369Y-2469D01*
X-6444Y-2651D01*
X-6445Y-2848D01*
X-6369Y-3030D01*
X-6230Y-3169D01*
X-6048Y-3244D01*
X-5851Y-3245D01*
X-5669Y-3169D01*
X-5530Y-3030D01*
X-5455Y-2848D01*
X-5454Y-2651D01*
X-5530Y-2469D01*
X-5669Y-2330D01*
X-5730Y-2305D01*
X-5730Y-2194D01*
X-5669Y-2169D01*
X-5530Y-2030D01*
X-5455Y-1848D01*
X-5454Y-1651D01*
X-5530Y-1469D01*
X-5669Y-1330D01*
X-5730Y-1305D01*
X-5730Y-1191D01*
X-5344Y-805D01*
X-5296Y-734D01*
X-5296Y-734D01*
X-5280Y-650D01*
X-5280Y-444D01*
X-5219Y-419D01*
X-5080Y-280D01*
X-5005Y-98D01*
X-5004Y98D01*
X-5080Y280D01*
X-5160Y360D01*
X-4839Y360D01*
X-4919Y280D01*
X-4994Y98D01*
X-4995Y-98D01*
X-4919Y-280D01*
X-4780Y-419D01*
X-4720Y-444D01*
X-4720Y-558D01*
X-5105Y-944D01*
X-5153Y-1015D01*
X-5170Y-1100D01*
X-5170Y-1305D01*
X-5230Y-1330D01*
X-5369Y-1469D01*
X-5444Y-1651D01*
X-5445Y-1848D01*
X-5369Y-2030D01*
X-5230Y-2169D01*
X-5170Y-2194D01*
X-5170Y-2305D01*
X-5230Y-2330D01*
X-5369Y-2469D01*
X-5444Y-2651D01*
X-5445Y-2848D01*
X-5369Y-3030D01*
X-5230Y-3169D01*
X-5048Y-3244D01*
X-4851Y-3245D01*
X-4669Y-3169D01*
X-4530Y-3030D01*
X-4455Y-2848D01*
X-4454Y-2651D01*
X-4530Y-2469D01*
X-4669Y-2330D01*
X-4730Y-2305D01*
X-4730Y-2194D01*
X-4669Y-2169D01*
X-4530Y-2030D01*
X-4455Y-1848D01*
X-4454Y-1651D01*
X-4530Y-1469D01*
X-4669Y-1330D01*
X-4730Y-1305D01*
X-4730Y-1191D01*
X-4344Y-805D01*
X-4296Y-734D01*
X-4296Y-734D01*
X-4280Y-650D01*
X-4280Y-444D01*
X-4219Y-419D01*
X-4080Y-280D01*
X-4005Y-98D01*
X-4004Y98D01*
X-4080Y280D01*
X-4160Y360D01*
X-3839Y360D01*
X-3919Y280D01*
X-3994Y98D01*
X-3995Y-98D01*
X-3919Y-280D01*
X-3780Y-419D01*
X-3598Y-494D01*
X-3401Y-495D01*
X-3219Y-419D01*
X-3080Y-280D01*
X-3005Y-98D01*
X-3004Y98D01*
X-3080Y280D01*
X-3160Y360D01*
X-2809Y360D01*
X-2809Y359D01*
X-2500Y49D01*
X-2190Y359D01*
X-2190Y360D01*
X-1839Y360D01*
X-1919Y280D01*
X-1994Y98D01*
X-1995Y-98D01*
X-1919Y-280D01*
X-1845Y-355D01*
X-1845Y-713D01*
X-1867Y-723D01*
X-1901Y-756D01*
X-1919Y-801D01*
X-1920Y-848D01*
X-1920Y-1398D01*
X-1901Y-1442D01*
X-1868Y-1476D01*
X-1823Y-1494D01*
X-1776Y-1495D01*
X-1426Y-1495D01*
X-1382Y-1476D01*
X-1348Y-1443D01*
X-1330Y-1398D01*
X-1329Y-1351D01*
X-1329Y-1320D01*
X-1120Y-1320D01*
X-1120Y-1398D01*
X-1101Y-1442D01*
X-1068Y-1476D01*
X-1023Y-1494D01*
X-976Y-1495D01*
X-626Y-1495D01*
X-582Y-1476D01*
X-548Y-1443D01*
X-530Y-1398D01*
X-529Y-1351D01*
X-529Y-801D01*
X-548Y-757D01*
X-581Y-723D01*
X-626Y-705D01*
X-673Y-704D01*
X-1023Y-704D01*
X-1067Y-723D01*
X-1101Y-756D01*
X-1119Y-801D01*
X-1120Y-848D01*
X-1120Y-880D01*
X-1329Y-880D01*
X-1329Y-801D01*
X-1348Y-757D01*
X-1381Y-723D01*
X-1405Y-713D01*
X-1405Y-495D01*
X-1401Y-495D01*
X-1219Y-419D01*
X-1080Y-280D01*
X-1005Y-98D01*
X-1004Y98D01*
X-1080Y280D01*
X-1160Y360D01*
X-839Y360D01*
X-919Y280D01*
X-994Y98D01*
X-995Y-98D01*
X-919Y-280D01*
X-780Y-419D01*
X-598Y-494D01*
X-401Y-495D01*
X-219Y-419D01*
X-80Y-280D01*
X-5Y-98D01*
X-4Y98D01*
X-80Y280D01*
X-160Y360D01*
X160Y360D01*
X80Y280D01*
X5Y98D01*
X4Y-98D01*
X80Y-280D01*
X219Y-419D01*
X401Y-494D01*
X598Y-495D01*
X780Y-419D01*
X919Y-280D01*
X994Y-98D01*
X995Y98D01*
X919Y280D01*
X839Y360D01*
X1160Y360D01*
X1080Y280D01*
X1005Y98D01*
X1004Y-98D01*
X1080Y-280D01*
X1219Y-419D01*
X1280Y-444D01*
X1280Y-2400D01*
X1280Y-2508D01*
X970Y-2818D01*
X970Y-2451D01*
X970Y-1901D01*
X951Y-1857D01*
X922Y-1828D01*
X954Y-1750D01*
X955Y-1649D01*
X916Y-1555D01*
X844Y-1483D01*
X750Y-1445D01*
X649Y-1444D01*
X555Y-1483D01*
X483Y-1555D01*
X445Y-1649D01*
X444Y-1750D01*
X455Y-1774D01*
X455Y-1813D01*
X432Y-1823D01*
X398Y-1856D01*
X380Y-1901D01*
X379Y-1948D01*
X379Y-2498D01*
X398Y-2542D01*
X431Y-2576D01*
X476Y-2594D01*
X523Y-2595D01*
X873Y-2595D01*
X917Y-2576D01*
X951Y-2543D01*
X969Y-2498D01*
X970Y-2451D01*
X970Y-2818D01*
X958Y-2830D01*
X635Y-2830D01*
X550Y-2795D01*
X449Y-2794D01*
X355Y-2833D01*
X283Y-2905D01*
X245Y-2999D01*
X244Y-3100D01*
X283Y-3194D01*
X355Y-3266D01*
X449Y-3304D01*
X550Y-3305D01*
X635Y-3270D01*
X1050Y-3270D01*
X1134Y-3253D01*
X1134Y-3253D01*
X1205Y-3205D01*
X1655Y-2755D01*
X1703Y-2684D01*
X1703Y-2684D01*
X1720Y-2600D01*
X1720Y-2400D01*
X1720Y-444D01*
X1780Y-419D01*
X1919Y-280D01*
X1994Y-98D01*
X1995Y98D01*
X1919Y280D01*
X1839Y360D01*
X2160Y360D01*
X2080Y280D01*
X2005Y98D01*
X2004Y-98D01*
X2080Y-280D01*
X2219Y-419D01*
X2401Y-494D01*
X2598Y-495D01*
X2780Y-419D01*
X2919Y-280D01*
X2994Y-98D01*
X2995Y98D01*
X2919Y280D01*
X2839Y360D01*
X3160Y360D01*
X3080Y280D01*
X3005Y98D01*
X3004Y-98D01*
X3080Y-280D01*
X3219Y-419D01*
X3401Y-494D01*
X3598Y-495D01*
X3780Y-419D01*
X3919Y-280D01*
X3994Y-98D01*
X3995Y98D01*
X3919Y280D01*
X3839Y360D01*
X4160Y360D01*
X4080Y280D01*
X4005Y98D01*
X4004Y-98D01*
X4080Y-280D01*
X4219Y-419D01*
X4401Y-494D01*
X4598Y-495D01*
X4780Y-419D01*
X4919Y-280D01*
X4994Y-98D01*
X4995Y98D01*
X4919Y280D01*
X4839Y360D01*
X5160Y360D01*
X5080Y280D01*
X5005Y98D01*
X5004Y-98D01*
X5080Y-280D01*
X5219Y-419D01*
X5401Y-494D01*
X5598Y-495D01*
X5780Y-419D01*
X5919Y-280D01*
X5994Y-98D01*
X5995Y98D01*
X5919Y280D01*
X5839Y360D01*
X6160Y360D01*
X6080Y280D01*
X6005Y98D01*
X6004Y-98D01*
X6080Y-280D01*
X6219Y-419D01*
X6401Y-494D01*
X6598Y-495D01*
X6780Y-419D01*
X6919Y-280D01*
X6994Y-98D01*
X6995Y98D01*
X6919Y280D01*
X6839Y360D01*
X7160Y360D01*
X7080Y280D01*
X7005Y98D01*
X7004Y-98D01*
X7080Y-280D01*
X7219Y-419D01*
X7401Y-494D01*
X7598Y-495D01*
X7780Y-419D01*
X7919Y-280D01*
X7994Y-98D01*
X7995Y98D01*
X7919Y280D01*
X7839Y360D01*
X8160Y360D01*
X8080Y280D01*
X8005Y98D01*
X8004Y-98D01*
X8080Y-280D01*
X8219Y-419D01*
X8401Y-494D01*
X8598Y-495D01*
X8780Y-419D01*
X8919Y-280D01*
X8994Y-98D01*
X8995Y98D01*
X8919Y280D01*
X8839Y360D01*
X9160Y360D01*
X9080Y280D01*
X9005Y98D01*
X9004Y-98D01*
X9080Y-280D01*
X9130Y-330D01*
X9130Y-1258D01*
X8733Y-1655D01*
X8136Y-1655D01*
X8126Y-1632D01*
X8093Y-1598D01*
X8048Y-1580D01*
X8001Y-1579D01*
X7451Y-1579D01*
X7407Y-1598D01*
X7373Y-1631D01*
X7363Y-1655D01*
X7025Y-1655D01*
X6940Y-1671D01*
X6928Y-1679D01*
X6376Y-1679D01*
X6332Y-1698D01*
X6298Y-1731D01*
X6280Y-1776D01*
X6279Y-1823D01*
X6279Y-2623D01*
X6298Y-2667D01*
X6331Y-2701D01*
X6376Y-2719D01*
X6423Y-2720D01*
X7023Y-2720D01*
X7067Y-2701D01*
X7101Y-2668D01*
X7119Y-2623D01*
X7120Y-2576D01*
X7120Y-2095D01*
X7363Y-2095D01*
X7373Y-2117D01*
X7406Y-2151D01*
X7451Y-2169D01*
X7498Y-2170D01*
X8048Y-2170D01*
X8092Y-2151D01*
X8126Y-2118D01*
X8136Y-2095D01*
X8825Y-2095D01*
X8909Y-2078D01*
X8909Y-2078D01*
X8980Y-2030D01*
X9505Y-1505D01*
X9505Y-1505D01*
X9553Y-1434D01*
X9569Y-1350D01*
X9570Y-1350D01*
X9570Y-495D01*
X9598Y-495D01*
X9633Y-480D01*
X9633Y-480D01*
G37*
G54D18*
X9633Y-480D02*
X9630Y-500D01*
X9630Y-3558D01*
X9058Y-4130D01*
X8145Y-4130D01*
X8145Y-2776D01*
X8145Y-2426D01*
X8126Y-2382D01*
X8093Y-2348D01*
X8048Y-2330D01*
X8001Y-2329D01*
X7451Y-2329D01*
X7407Y-2348D01*
X7373Y-2381D01*
X7355Y-2426D01*
X7354Y-2473D01*
X7354Y-2823D01*
X7373Y-2867D01*
X7406Y-2901D01*
X7451Y-2919D01*
X7457Y-2919D01*
X7445Y-2949D01*
X7444Y-3050D01*
X7483Y-3144D01*
X7555Y-3216D01*
X7649Y-3254D01*
X7750Y-3255D01*
X7844Y-3216D01*
X7916Y-3144D01*
X7954Y-3050D01*
X7954Y-3025D01*
X7954Y-3025D01*
X7970Y-2950D01*
X7970Y-2920D01*
X8048Y-2920D01*
X8092Y-2901D01*
X8126Y-2868D01*
X8144Y-2823D01*
X8145Y-2776D01*
X8145Y-4130D01*
X7722Y-4130D01*
X7754Y-4050D01*
X7755Y-3949D01*
X7716Y-3855D01*
X7644Y-3783D01*
X7550Y-3745D01*
X7449Y-3744D01*
X7364Y-3780D01*
X5820Y-3780D01*
X5820Y-2576D01*
X5820Y-1823D01*
X5819Y-1776D01*
X5801Y-1731D01*
X5767Y-1698D01*
X5723Y-1679D01*
X5465Y-1680D01*
X5435Y-1710D01*
X5435Y-2165D01*
X5790Y-2165D01*
X5820Y-2135D01*
X5820Y-1823D01*
X5820Y-2576D01*
X5820Y-2265D01*
X5790Y-2235D01*
X5435Y-2235D01*
X5435Y-2690D01*
X5465Y-2720D01*
X5723Y-2720D01*
X5767Y-2701D01*
X5801Y-2668D01*
X5819Y-2623D01*
X5820Y-2576D01*
X5820Y-3780D01*
X5365Y-3780D01*
X5365Y-2690D01*
X5365Y-2235D01*
X5365Y-2165D01*
X5365Y-1710D01*
X5335Y-1680D01*
X5076Y-1679D01*
X5032Y-1698D01*
X4998Y-1731D01*
X4980Y-1776D01*
X4979Y-1823D01*
X4980Y-2135D01*
X5010Y-2165D01*
X5365Y-2165D01*
X5365Y-2235D01*
X5010Y-2235D01*
X4980Y-2265D01*
X4979Y-2576D01*
X4980Y-2623D01*
X4998Y-2668D01*
X5032Y-2701D01*
X5076Y-2720D01*
X5335Y-2720D01*
X5365Y-2690D01*
X5365Y-3780D01*
X4635Y-3780D01*
X4550Y-3745D01*
X4449Y-3744D01*
X4364Y-3780D01*
X220Y-3780D01*
X220Y-2451D01*
X220Y-1901D01*
X201Y-1857D01*
X168Y-1823D01*
X145Y-1813D01*
X145Y-1486D01*
X167Y-1476D01*
X201Y-1443D01*
X219Y-1398D01*
X220Y-1351D01*
X220Y-801D01*
X201Y-757D01*
X168Y-723D01*
X123Y-705D01*
X76Y-704D01*
X-273Y-704D01*
X-317Y-723D01*
X-351Y-756D01*
X-369Y-801D01*
X-370Y-848D01*
X-370Y-1398D01*
X-351Y-1442D01*
X-318Y-1476D01*
X-295Y-1486D01*
X-295Y-1813D01*
X-317Y-1823D01*
X-351Y-1856D01*
X-369Y-1901D01*
X-370Y-1948D01*
X-370Y-1980D01*
X-679Y-1980D01*
X-679Y-1776D01*
X-698Y-1732D01*
X-731Y-1698D01*
X-776Y-1680D01*
X-823Y-1679D01*
X-1423Y-1679D01*
X-1467Y-1698D01*
X-1501Y-1731D01*
X-1519Y-1776D01*
X-1520Y-1823D01*
X-1520Y-2623D01*
X-1501Y-2667D01*
X-1468Y-2701D01*
X-1423Y-2719D01*
X-1376Y-2720D01*
X-1320Y-2720D01*
X-1320Y-2850D01*
X-1303Y-2934D01*
X-1255Y-3005D01*
X-1251Y-3010D01*
X-1216Y-3094D01*
X-1144Y-3166D01*
X-1050Y-3204D01*
X-949Y-3205D01*
X-855Y-3166D01*
X-783Y-3094D01*
X-745Y-3000D01*
X-744Y-2899D01*
X-783Y-2805D01*
X-855Y-2733D01*
X-880Y-2723D01*
X-880Y-2720D01*
X-776Y-2720D01*
X-732Y-2701D01*
X-698Y-2668D01*
X-680Y-2623D01*
X-679Y-2576D01*
X-679Y-2420D01*
X-370Y-2420D01*
X-370Y-2498D01*
X-351Y-2542D01*
X-318Y-2576D01*
X-273Y-2594D01*
X-226Y-2595D01*
X123Y-2595D01*
X167Y-2576D01*
X201Y-2543D01*
X219Y-2498D01*
X220Y-2451D01*
X220Y-3780D01*
X-1364Y-3780D01*
X-1449Y-3745D01*
X-1550Y-3744D01*
X-1644Y-3783D01*
X-1716Y-3855D01*
X-1754Y-3949D01*
X-1755Y-4050D01*
X-1722Y-4130D01*
X-1979Y-4130D01*
X-1979Y-2576D01*
X-1979Y-1776D01*
X-1998Y-1732D01*
X-2002Y-1728D01*
X-2002Y-83D01*
X-2008Y113D01*
X-2072Y267D01*
X-2140Y309D01*
X-2450Y0D01*
X-2140Y-309D01*
X-2072Y-267D01*
X-2002Y-83D01*
X-2002Y-1728D01*
X-2031Y-1698D01*
X-2076Y-1680D01*
X-2079Y-1680D01*
X-2079Y-1351D01*
X-2079Y-848D01*
X-2080Y-801D01*
X-2098Y-756D01*
X-2132Y-723D01*
X-2176Y-704D01*
X-2190Y-704D01*
X-2190Y-359D01*
X-2500Y-49D01*
X-2549Y-98D01*
X-2549Y0D01*
X-2859Y309D01*
X-2927Y267D01*
X-2997Y83D01*
X-2991Y-113D01*
X-2927Y-267D01*
X-2859Y-309D01*
X-2549Y0D01*
X-2549Y-98D01*
X-2809Y-359D01*
X-2767Y-427D01*
X-2583Y-497D01*
X-2386Y-491D01*
X-2232Y-427D01*
X-2190Y-359D01*
X-2190Y-704D01*
X-2310Y-705D01*
X-2340Y-735D01*
X-2340Y-1065D01*
X-2110Y-1065D01*
X-2080Y-1035D01*
X-2079Y-848D01*
X-2079Y-1351D01*
X-2080Y-1165D01*
X-2110Y-1135D01*
X-2340Y-1135D01*
X-2340Y-1465D01*
X-2310Y-1495D01*
X-2176Y-1495D01*
X-2132Y-1476D01*
X-2098Y-1443D01*
X-2080Y-1398D01*
X-2079Y-1351D01*
X-2079Y-1680D01*
X-2123Y-1679D01*
X-2410Y-1679D01*
X-2410Y-1465D01*
X-2410Y-1135D01*
X-2410Y-1065D01*
X-2410Y-735D01*
X-2440Y-705D01*
X-2573Y-704D01*
X-2617Y-723D01*
X-2651Y-756D01*
X-2669Y-801D01*
X-2670Y-848D01*
X-2670Y-1035D01*
X-2640Y-1065D01*
X-2410Y-1065D01*
X-2410Y-1135D01*
X-2640Y-1135D01*
X-2670Y-1165D01*
X-2670Y-1351D01*
X-2669Y-1398D01*
X-2651Y-1443D01*
X-2617Y-1476D01*
X-2573Y-1495D01*
X-2440Y-1495D01*
X-2410Y-1465D01*
X-2410Y-1679D01*
X-2723Y-1679D01*
X-2767Y-1698D01*
X-2801Y-1731D01*
X-2819Y-1776D01*
X-2820Y-1823D01*
X-2820Y-2623D01*
X-2801Y-2667D01*
X-2768Y-2701D01*
X-2723Y-2719D01*
X-2676Y-2720D01*
X-2620Y-2720D01*
X-2620Y-2723D01*
X-2644Y-2733D01*
X-2716Y-2805D01*
X-2754Y-2899D01*
X-2755Y-3000D01*
X-2716Y-3094D01*
X-2644Y-3166D01*
X-2550Y-3204D01*
X-2449Y-3205D01*
X-2355Y-3166D01*
X-2283Y-3094D01*
X-2248Y-3009D01*
X-2244Y-3005D01*
X-2196Y-2934D01*
X-2196Y-2934D01*
X-2180Y-2850D01*
X-2180Y-2850D01*
X-2180Y-2720D01*
X-2076Y-2720D01*
X-2032Y-2701D01*
X-1998Y-2668D01*
X-1980Y-2623D01*
X-1979Y-2576D01*
X-1979Y-4130D01*
X-2150Y-4130D01*
X-2708Y-4130D01*
X-3669Y-3169D01*
X-3530Y-3030D01*
X-3455Y-2848D01*
X-3454Y-2651D01*
X-3530Y-2469D01*
X-3669Y-2330D01*
X-3730Y-2305D01*
X-3730Y-2194D01*
X-3669Y-2169D01*
X-3530Y-2030D01*
X-3455Y-1848D01*
X-3454Y-1651D01*
X-3530Y-1469D01*
X-3669Y-1330D01*
X-3851Y-1255D01*
X-4048Y-1254D01*
X-4230Y-1330D01*
X-4369Y-1469D01*
X-4444Y-1651D01*
X-4445Y-1848D01*
X-4369Y-2030D01*
X-4230Y-2169D01*
X-4170Y-2194D01*
X-4170Y-2305D01*
X-4230Y-2330D01*
X-4369Y-2469D01*
X-4444Y-2651D01*
X-4445Y-2848D01*
X-4369Y-3030D01*
X-4230Y-3169D01*
X-4170Y-3194D01*
X-4170Y-3200D01*
X-4153Y-3284D01*
X-4105Y-3355D01*
X-3100Y-4360D01*
X-6860Y-4360D01*
X-6860Y-495D01*
X-6565Y-495D01*
X-6535Y-465D01*
X-6535Y-35D01*
X-6542Y-35D01*
X-6542Y35D01*
X-6535Y35D01*
X-6535Y42D01*
X-6465Y42D01*
X-6465Y35D01*
X-6035Y35D01*
X-6005Y65D01*
X-6004Y351D01*
X-6004Y360D01*
X-5839Y360D01*
X-5919Y280D01*
X-5994Y98D01*
X-5995Y-98D01*
X-5919Y-280D01*
X-5780Y-419D01*
X-5720Y-444D01*
X-5720Y-558D01*
X-6004Y-843D01*
X-6004Y-351D01*
X-6005Y-65D01*
X-6035Y-35D01*
X-6465Y-35D01*
X-6465Y-465D01*
X-6435Y-495D01*
X-6101Y-495D01*
X-6057Y-476D01*
X-6023Y-443D01*
X-6005Y-398D01*
X-6004Y-351D01*
X-6004Y-843D01*
X-6105Y-944D01*
X-6153Y-1015D01*
X-6170Y-1100D01*
X-6170Y-1305D01*
X-6230Y-1330D01*
X-6369Y-1469D01*
X-6444Y-1651D01*
X-6445Y-1848D01*
X-6369Y-2030D01*
X-6230Y-2169D01*
X-6170Y-2194D01*
X-6170Y-2305D01*
X-6230Y-2330D01*
X-6369Y-2469D01*
X-6444Y-2651D01*
X-6445Y-2848D01*
X-6369Y-3030D01*
X-6230Y-3169D01*
X-6048Y-3244D01*
X-5851Y-3245D01*
X-5669Y-3169D01*
X-5530Y-3030D01*
X-5455Y-2848D01*
X-5454Y-2651D01*
X-5530Y-2469D01*
X-5669Y-2330D01*
X-5730Y-2305D01*
X-5730Y-2194D01*
X-5669Y-2169D01*
X-5530Y-2030D01*
X-5455Y-1848D01*
X-5454Y-1651D01*
X-5530Y-1469D01*
X-5669Y-1330D01*
X-5730Y-1305D01*
X-5730Y-1191D01*
X-5344Y-805D01*
X-5296Y-734D01*
X-5296Y-734D01*
X-5280Y-650D01*
X-5280Y-444D01*
X-5219Y-419D01*
X-5080Y-280D01*
X-5005Y-98D01*
X-5004Y98D01*
X-5080Y280D01*
X-5160Y360D01*
X-4839Y360D01*
X-4919Y280D01*
X-4994Y98D01*
X-4995Y-98D01*
X-4919Y-280D01*
X-4780Y-419D01*
X-4720Y-444D01*
X-4720Y-558D01*
X-5105Y-944D01*
X-5153Y-1015D01*
X-5170Y-1100D01*
X-5170Y-1305D01*
X-5230Y-1330D01*
X-5369Y-1469D01*
X-5444Y-1651D01*
X-5445Y-1848D01*
X-5369Y-2030D01*
X-5230Y-2169D01*
X-5170Y-2194D01*
X-5170Y-2305D01*
X-5230Y-2330D01*
X-5369Y-2469D01*
X-5444Y-2651D01*
X-5445Y-2848D01*
X-5369Y-3030D01*
X-5230Y-3169D01*
X-5048Y-3244D01*
X-4851Y-3245D01*
X-4669Y-3169D01*
X-4530Y-3030D01*
X-4455Y-2848D01*
X-4454Y-2651D01*
X-4530Y-2469D01*
X-4669Y-2330D01*
X-4730Y-2305D01*
X-4730Y-2194D01*
X-4669Y-2169D01*
X-4530Y-2030D01*
X-4455Y-1848D01*
X-4454Y-1651D01*
X-4530Y-1469D01*
X-4669Y-1330D01*
X-4730Y-1305D01*
X-4730Y-1191D01*
X-4344Y-805D01*
X-4296Y-734D01*
X-4296Y-734D01*
X-4280Y-650D01*
X-4280Y-444D01*
X-4219Y-419D01*
X-4080Y-280D01*
X-4005Y-98D01*
X-4004Y98D01*
X-4080Y280D01*
X-4160Y360D01*
X-3839Y360D01*
X-3919Y280D01*
X-3994Y98D01*
X-3995Y-98D01*
X-3919Y-280D01*
X-3780Y-419D01*
X-3598Y-494D01*
X-3401Y-495D01*
X-3219Y-419D01*
X-3080Y-280D01*
X-3005Y-98D01*
X-3004Y98D01*
X-3080Y280D01*
X-3160Y360D01*
X-2809Y360D01*
X-2809Y359D01*
X-2500Y49D01*
X-2190Y359D01*
X-2190Y360D01*
X-1839Y360D01*
X-1919Y280D01*
X-1994Y98D01*
X-1995Y-98D01*
X-1919Y-280D01*
X-1845Y-355D01*
X-1845Y-713D01*
X-1867Y-723D01*
X-1901Y-756D01*
X-1919Y-801D01*
X-1920Y-848D01*
X-1920Y-1398D01*
X-1901Y-1442D01*
X-1868Y-1476D01*
X-1823Y-1494D01*
X-1776Y-1495D01*
X-1426Y-1495D01*
X-1382Y-1476D01*
X-1348Y-1443D01*
X-1330Y-1398D01*
X-1329Y-1351D01*
X-1329Y-1320D01*
X-1120Y-1320D01*
X-1120Y-1398D01*
X-1101Y-1442D01*
X-1068Y-1476D01*
X-1023Y-1494D01*
X-976Y-1495D01*
X-626Y-1495D01*
X-582Y-1476D01*
X-548Y-1443D01*
X-530Y-1398D01*
X-529Y-1351D01*
X-529Y-801D01*
X-548Y-757D01*
X-581Y-723D01*
X-626Y-705D01*
X-673Y-704D01*
X-1023Y-704D01*
X-1067Y-723D01*
X-1101Y-756D01*
X-1119Y-801D01*
X-1120Y-848D01*
X-1120Y-880D01*
X-1329Y-880D01*
X-1329Y-801D01*
X-1348Y-757D01*
X-1381Y-723D01*
X-1405Y-713D01*
X-1405Y-495D01*
X-1401Y-495D01*
X-1219Y-419D01*
X-1080Y-280D01*
X-1005Y-98D01*
X-1004Y98D01*
X-1080Y280D01*
X-1160Y360D01*
X-839Y360D01*
X-919Y280D01*
X-994Y98D01*
X-995Y-98D01*
X-919Y-280D01*
X-780Y-419D01*
X-598Y-494D01*
X-401Y-495D01*
X-219Y-419D01*
X-80Y-280D01*
X-5Y-98D01*
X-4Y98D01*
X-80Y280D01*
X-160Y360D01*
X160Y360D01*
X80Y280D01*
X5Y98D01*
X4Y-98D01*
X80Y-280D01*
X219Y-419D01*
X401Y-494D01*
X598Y-495D01*
X780Y-419D01*
X919Y-280D01*
X994Y-98D01*
X995Y98D01*
X919Y280D01*
X839Y360D01*
X1160Y360D01*
X1080Y280D01*
X1005Y98D01*
X1004Y-98D01*
X1080Y-280D01*
X1219Y-419D01*
X1280Y-444D01*
X1280Y-2400D01*
X1280Y-2508D01*
X970Y-2818D01*
X970Y-2451D01*
X970Y-1901D01*
X951Y-1857D01*
X922Y-1828D01*
X954Y-1750D01*
X955Y-1649D01*
X916Y-1555D01*
X844Y-1483D01*
X750Y-1445D01*
X649Y-1444D01*
X555Y-1483D01*
X483Y-1555D01*
X445Y-1649D01*
X444Y-1750D01*
X455Y-1774D01*
X455Y-1813D01*
X432Y-1823D01*
X398Y-1856D01*
X380Y-1901D01*
X379Y-1948D01*
X379Y-2498D01*
X398Y-2542D01*
X431Y-2576D01*
X476Y-2594D01*
X523Y-2595D01*
X873Y-2595D01*
X917Y-2576D01*
X951Y-2543D01*
X969Y-2498D01*
X970Y-2451D01*
X970Y-2818D01*
X958Y-2830D01*
X635Y-2830D01*
X550Y-2795D01*
X449Y-2794D01*
X355Y-2833D01*
X283Y-2905D01*
X245Y-2999D01*
X244Y-3100D01*
X283Y-3194D01*
X355Y-3266D01*
X449Y-3304D01*
X550Y-3305D01*
X635Y-3270D01*
X1050Y-3270D01*
X1134Y-3253D01*
X1134Y-3253D01*
X1205Y-3205D01*
X1655Y-2755D01*
X1703Y-2684D01*
X1703Y-2684D01*
X1720Y-2600D01*
X1720Y-2400D01*
X1720Y-444D01*
X1780Y-419D01*
X1919Y-280D01*
X1994Y-98D01*
X1995Y98D01*
X1919Y280D01*
X1839Y360D01*
X2160Y360D01*
X2080Y280D01*
X2005Y98D01*
X2004Y-98D01*
X2080Y-280D01*
X2219Y-419D01*
X2401Y-494D01*
X2598Y-495D01*
X2780Y-419D01*
X2919Y-280D01*
X2994Y-98D01*
X2995Y98D01*
X2919Y280D01*
X2839Y360D01*
X3160Y360D01*
X3080Y280D01*
X3005Y98D01*
X3004Y-98D01*
X3080Y-280D01*
X3219Y-419D01*
X3401Y-494D01*
X3598Y-495D01*
X3780Y-419D01*
X3919Y-280D01*
X3994Y-98D01*
X3995Y98D01*
X3919Y280D01*
X3839Y360D01*
X4160Y360D01*
X4080Y280D01*
X4005Y98D01*
X4004Y-98D01*
X4080Y-280D01*
X4219Y-419D01*
X4401Y-494D01*
X4598Y-495D01*
X4780Y-419D01*
X4919Y-280D01*
X4994Y-98D01*
X4995Y98D01*
X4919Y280D01*
X4839Y360D01*
X5160Y360D01*
X5080Y280D01*
X5005Y98D01*
X5004Y-98D01*
X5080Y-280D01*
X5219Y-419D01*
X5401Y-494D01*
X5598Y-495D01*
X5780Y-419D01*
X5919Y-280D01*
X5994Y-98D01*
X5995Y98D01*
X5919Y280D01*
X5839Y360D01*
X6160Y360D01*
X6080Y280D01*
X6005Y98D01*
X6004Y-98D01*
X6080Y-280D01*
X6219Y-419D01*
X6401Y-494D01*
X6598Y-495D01*
X6780Y-419D01*
X6919Y-280D01*
X6994Y-98D01*
X6995Y98D01*
X6919Y280D01*
X6839Y360D01*
X7160Y360D01*
X7080Y280D01*
X7005Y98D01*
X7004Y-98D01*
X7080Y-280D01*
X7219Y-419D01*
X7401Y-494D01*
X7598Y-495D01*
X7780Y-419D01*
X7919Y-280D01*
X7994Y-98D01*
X7995Y98D01*
X7919Y280D01*
X7839Y360D01*
X8160Y360D01*
X8080Y280D01*
X8005Y98D01*
X8004Y-98D01*
X8080Y-280D01*
X8219Y-419D01*
X8401Y-494D01*
X8598Y-495D01*
X8780Y-419D01*
X8919Y-280D01*
X8994Y-98D01*
X8995Y98D01*
X8919Y280D01*
X8839Y360D01*
X9160Y360D01*
X9080Y280D01*
X9005Y98D01*
X9004Y-98D01*
X9080Y-280D01*
X9130Y-330D01*
X9130Y-1258D01*
X8733Y-1655D01*
X8136Y-1655D01*
X8126Y-1632D01*
X8093Y-1598D01*
X8048Y-1580D01*
X8001Y-1579D01*
X7451Y-1579D01*
X7407Y-1598D01*
X7373Y-1631D01*
X7363Y-1655D01*
X7025Y-1655D01*
X6940Y-1671D01*
X6928Y-1679D01*
X6376Y-1679D01*
X6332Y-1698D01*
X6298Y-1731D01*
X6280Y-1776D01*
X6279Y-1823D01*
X6279Y-2623D01*
X6298Y-2667D01*
X6331Y-2701D01*
X6376Y-2719D01*
X6423Y-2720D01*
X7023Y-2720D01*
X7067Y-2701D01*
X7101Y-2668D01*
X7119Y-2623D01*
X7120Y-2576D01*
X7120Y-2095D01*
X7363Y-2095D01*
X7373Y-2117D01*
X7406Y-2151D01*
X7451Y-2169D01*
X7498Y-2170D01*
X8048Y-2170D01*
X8092Y-2151D01*
X8126Y-2118D01*
X8136Y-2095D01*
X8825Y-2095D01*
X8909Y-2078D01*
X8909Y-2078D01*
X8980Y-2030D01*
X9505Y-1505D01*
X9505Y-1505D01*
X9553Y-1434D01*
X9569Y-1350D01*
X9570Y-1350D01*
X9570Y-495D01*
X9598Y-495D01*
X9633Y-480D01*
G54D10*
G36*
X10860Y-1660D02*
X10780Y-1580D01*
X10598Y-1505D01*
X10401Y-1504D01*
X10219Y-1580D01*
X10080Y-1719D01*
X10070Y-1744D01*
X10070Y-1482D01*
X10101Y-1494D01*
X10148Y-1495D01*
X10435Y-1495D01*
X10465Y-1465D01*
X10465Y-1035D01*
X10457Y-1035D01*
X10457Y-965D01*
X10465Y-965D01*
X10465Y-535D01*
X10435Y-505D01*
X10156Y-504D01*
X10235Y-425D01*
X10401Y-494D01*
X10598Y-495D01*
X10780Y-419D01*
X10860Y-339D01*
X10860Y-504D01*
X10851Y-504D01*
X10565Y-505D01*
X10535Y-535D01*
X10535Y-965D01*
X10542Y-965D01*
X10542Y-1035D01*
X10535Y-1035D01*
X10535Y-1465D01*
X10565Y-1495D01*
X10851Y-1495D01*
X10860Y-1495D01*
X10860Y-1660D01*
X10860Y-1660D01*
G37*
G54D18*
X10860Y-1660D02*
X10780Y-1580D01*
X10598Y-1505D01*
X10401Y-1504D01*
X10219Y-1580D01*
X10080Y-1719D01*
X10070Y-1744D01*
X10070Y-1482D01*
X10101Y-1494D01*
X10148Y-1495D01*
X10435Y-1495D01*
X10465Y-1465D01*
X10465Y-1035D01*
X10457Y-1035D01*
X10457Y-965D01*
X10465Y-965D01*
X10465Y-535D01*
X10435Y-505D01*
X10156Y-504D01*
X10235Y-425D01*
X10401Y-494D01*
X10598Y-495D01*
X10780Y-419D01*
X10860Y-339D01*
X10860Y-504D01*
X10851Y-504D01*
X10565Y-505D01*
X10535Y-535D01*
X10535Y-965D01*
X10542Y-965D01*
X10542Y-1035D01*
X10535Y-1035D01*
X10535Y-1465D01*
X10565Y-1495D01*
X10851Y-1495D01*
X10860Y-1495D01*
X10860Y-1660D01*
M02*
