G04 (created by PCBNEW (2013-07-07 BZR 4022)-stable) date 2/6/2016 8:58:51 PM*
%MOIN*%
G04 Gerber Fmt 3.4, Leading zero omitted, Abs format*
%FSLAX34Y34*%
G01*
G70*
G90*
G04 APERTURE LIST*
%ADD10C,0.00590551*%
%ADD11R,0.035X0.055*%
%ADD12R,0.02X0.045*%
%ADD13C,0.075*%
%ADD14R,0.075X0.075*%
%ADD15C,0.027*%
%ADD16C,0.02*%
%ADD17C,0.008*%
G04 APERTURE END LIST*
G54D10*
G54D11*
X2475Y-3450D03*
X1725Y-3450D03*
X8475Y-3450D03*
X7725Y-3450D03*
G54D12*
X7000Y-3550D03*
X6000Y-3550D03*
X5500Y-3550D03*
X5000Y-3550D03*
X4500Y-3550D03*
X4000Y-3550D03*
X3500Y-3550D03*
X3500Y-1050D03*
X4000Y-1050D03*
X4500Y-1050D03*
X5000Y-1050D03*
X5500Y-1050D03*
X6000Y-1050D03*
X6500Y-1050D03*
X7000Y-1050D03*
X6500Y-3550D03*
X1000Y-3550D03*
X0Y-3550D03*
X-500Y-3550D03*
X-1000Y-3550D03*
X-1500Y-3550D03*
X-2000Y-3550D03*
X-2500Y-3550D03*
X-2500Y-1050D03*
X-2000Y-1050D03*
X-1500Y-1050D03*
X-1000Y-1050D03*
X-500Y-1050D03*
X0Y-1050D03*
X500Y-1050D03*
X1000Y-1050D03*
X500Y-3550D03*
G54D13*
X-5950Y-2750D03*
X-4950Y-2750D03*
X-3950Y-2750D03*
G54D14*
X10500Y-1000D03*
G54D13*
X10500Y-2000D03*
X10500Y-3000D03*
X10500Y-4000D03*
G54D14*
X-6500Y0D03*
G54D13*
X-5500Y0D03*
X-4500Y0D03*
X-3500Y0D03*
X-2500Y0D03*
X-1500Y0D03*
X-500Y0D03*
X500Y0D03*
X1500Y0D03*
X2500Y0D03*
X3500Y0D03*
X4500Y0D03*
X5500Y0D03*
X6500Y0D03*
X7500Y0D03*
X8500Y0D03*
X9500Y0D03*
X10500Y0D03*
X-5950Y-1750D03*
X-4950Y-1750D03*
X-3950Y-1750D03*
G54D15*
X7500Y-4000D03*
X-1500Y-4000D03*
X4500Y-4000D03*
X700Y-1700D03*
X-1000Y-2950D03*
X500Y-3050D03*
X3200Y-1250D03*
X-2800Y-1250D03*
X8800Y-3450D03*
X8900Y-1000D03*
X2750Y-3450D03*
X-2500Y-2950D03*
X7700Y-3000D03*
G54D16*
X9500Y-4000D02*
X10500Y-3000D01*
X9500Y-4000D02*
X8050Y-4000D01*
X8050Y-4000D02*
X7500Y-4000D01*
X-1500Y-4000D02*
X-1500Y-3550D01*
X4500Y-4000D02*
X4500Y-3550D01*
X3850Y-1700D02*
X4600Y-1700D01*
X4600Y-1700D02*
X6000Y-3100D01*
X10500Y-2000D02*
X7100Y-2000D01*
X7100Y-2000D02*
X6000Y-3100D01*
X6000Y-3550D02*
X6000Y-3100D01*
X2200Y-1700D02*
X3850Y-1700D01*
X700Y-1700D02*
X2200Y-1700D01*
X5000Y-3550D02*
X5000Y-3050D01*
X5000Y-3050D02*
X4150Y-2200D01*
X-1000Y-3450D02*
X-1000Y-2950D01*
X4150Y-2200D02*
X4000Y-2200D01*
X-250Y-2200D02*
X-800Y-2750D01*
X4000Y-2200D02*
X-250Y-2200D01*
X-1000Y-2950D02*
X-800Y-2750D01*
X6500Y-1050D02*
X6500Y-750D01*
X7400Y0D02*
X7500Y0D01*
X6850Y-550D02*
X7400Y0D01*
X6700Y-550D02*
X6850Y-550D01*
X6500Y-750D02*
X6700Y-550D01*
X7000Y-1050D02*
X7000Y-800D01*
X7900Y-600D02*
X8500Y0D01*
X7200Y-600D02*
X7900Y-600D01*
X7000Y-800D02*
X7200Y-600D01*
X-500Y0D02*
X-404Y0D01*
X500Y-700D02*
X500Y-1050D01*
X400Y-600D02*
X500Y-700D01*
X195Y-600D02*
X400Y-600D01*
X-404Y0D02*
X195Y-600D01*
X1000Y-1050D02*
X1000Y-500D01*
X1000Y-500D02*
X500Y0D01*
X500Y-3450D02*
X500Y-3050D01*
X4000Y-1050D02*
X4000Y-750D01*
X3100Y-600D02*
X2500Y0D01*
X3850Y-600D02*
X3100Y-600D01*
X4000Y-750D02*
X3850Y-600D01*
X4500Y-1050D02*
X4500Y-700D01*
X3650Y0D02*
X3500Y0D01*
X4202Y-552D02*
X3650Y0D01*
X4352Y-552D02*
X4202Y-552D01*
X4500Y-700D02*
X4352Y-552D01*
X5000Y-1050D02*
X5000Y-500D01*
X5000Y-500D02*
X4500Y0D01*
X5500Y0D02*
X5500Y-1050D01*
X6000Y-1050D02*
X6000Y-500D01*
X6000Y-500D02*
X6500Y0D01*
X-2300Y-600D02*
X-2900Y-600D01*
X0Y-800D02*
X-200Y-600D01*
X-200Y-600D02*
X-2300Y-600D01*
X0Y-1050D02*
X0Y-800D01*
X-2900Y-600D02*
X-3500Y0D01*
X3500Y-1050D02*
X3400Y-1050D01*
X3400Y-1050D02*
X3200Y-1250D01*
X-2500Y-1050D02*
X-2600Y-1050D01*
X-2600Y-1050D02*
X-2800Y-1250D01*
X8475Y-3450D02*
X8800Y-3450D01*
X10500Y-1000D02*
X8900Y-1000D01*
X2475Y-3450D02*
X2750Y-3450D01*
X-2500Y-3450D02*
X-2500Y-2950D01*
X0Y-3450D02*
X0Y-2950D01*
X3500Y-3050D02*
X3500Y-3450D01*
X3150Y-2700D02*
X3500Y-3050D01*
X250Y-2700D02*
X3150Y-2700D01*
X0Y-2950D02*
X250Y-2700D01*
X3500Y-3250D02*
X3500Y-3450D01*
X3500Y-3250D02*
X3500Y-3450D01*
X3500Y-3450D02*
X3500Y-3250D01*
X7000Y-3550D02*
X7000Y-4150D01*
X7000Y-4150D02*
X7200Y-4350D01*
X7000Y-3550D02*
X7625Y-3550D01*
X7625Y-3550D02*
X7725Y-3450D01*
X-2000Y-3550D02*
X-2000Y-4050D01*
X-2000Y-4050D02*
X-1700Y-4350D01*
X4000Y-3550D02*
X4000Y-4100D01*
X4000Y-4100D02*
X4250Y-4350D01*
X1000Y-3550D02*
X1000Y-4100D01*
X1000Y-4100D02*
X1250Y-4350D01*
X1000Y-3550D02*
X1625Y-3550D01*
X1625Y-3550D02*
X1725Y-3450D01*
X-5950Y-2750D02*
X-5950Y-3350D01*
X-4950Y-4350D02*
X-4150Y-4350D01*
X-5950Y-3350D02*
X-4950Y-4350D01*
X7400Y-4350D02*
X7200Y-4350D01*
X6400Y-4350D02*
X7400Y-4350D01*
X7200Y-4350D02*
X7300Y-4350D01*
X10150Y-4350D02*
X10500Y-4000D01*
X7300Y-4350D02*
X10150Y-4350D01*
X4450Y-4350D02*
X6400Y-4350D01*
X4250Y-4350D02*
X4450Y-4350D01*
X-4150Y-4350D02*
X-1700Y-4350D01*
X-1700Y-4350D02*
X-1550Y-4350D01*
X-1550Y-4350D02*
X550Y-4350D01*
X550Y-4350D02*
X1250Y-4350D01*
X1250Y-4350D02*
X1650Y-4350D01*
X1650Y-4350D02*
X4250Y-4350D01*
X7700Y-3000D02*
X7725Y-3025D01*
X7725Y-3025D02*
X7725Y-3450D01*
G54D10*
G36*
X-1820Y-380D02*
X-2002Y-380D01*
X-2002Y-83D01*
X-2008Y113D01*
X-2072Y267D01*
X-2140Y309D01*
X-2450Y0D01*
X-2140Y-309D01*
X-2072Y-267D01*
X-2002Y-83D01*
X-2002Y-380D01*
X-2202Y-380D01*
X-2190Y-359D01*
X-2500Y-49D01*
X-2505Y-55D01*
X-2555Y-5D01*
X-2549Y0D01*
X-2859Y309D01*
X-2927Y267D01*
X-2997Y83D01*
X-2991Y-113D01*
X-2932Y-256D01*
X-3029Y-158D01*
X-3005Y-98D01*
X-3004Y98D01*
X-3080Y280D01*
X-3160Y360D01*
X-2809Y360D01*
X-2809Y359D01*
X-2500Y49D01*
X-2190Y359D01*
X-2190Y360D01*
X-1839Y360D01*
X-1919Y280D01*
X-1994Y98D01*
X-1995Y-98D01*
X-1919Y-280D01*
X-1820Y-380D01*
X-1820Y-380D01*
G37*
G54D17*
X-1820Y-380D02*
X-2002Y-380D01*
X-2002Y-83D01*
X-2008Y113D01*
X-2072Y267D01*
X-2140Y309D01*
X-2450Y0D01*
X-2140Y-309D01*
X-2072Y-267D01*
X-2002Y-83D01*
X-2002Y-380D01*
X-2202Y-380D01*
X-2190Y-359D01*
X-2500Y-49D01*
X-2505Y-55D01*
X-2555Y-5D01*
X-2549Y0D01*
X-2859Y309D01*
X-2927Y267D01*
X-2997Y83D01*
X-2991Y-113D01*
X-2932Y-256D01*
X-3029Y-158D01*
X-3005Y-98D01*
X-3004Y98D01*
X-3080Y280D01*
X-3160Y360D01*
X-2809Y360D01*
X-2809Y359D01*
X-2500Y49D01*
X-2190Y359D01*
X-2190Y360D01*
X-1839Y360D01*
X-1919Y280D01*
X-1994Y98D01*
X-1995Y-98D01*
X-1919Y-280D01*
X-1820Y-380D01*
G54D10*
G36*
X10860Y-2660D02*
X10780Y-2580D01*
X10598Y-2505D01*
X10401Y-2504D01*
X10219Y-2580D01*
X10080Y-2719D01*
X10005Y-2901D01*
X10004Y-3098D01*
X10030Y-3158D01*
X9408Y-3780D01*
X8757Y-3780D01*
X8769Y-3748D01*
X8770Y-3701D01*
X8770Y-3198D01*
X8769Y-3151D01*
X8751Y-3106D01*
X8717Y-3073D01*
X8673Y-3054D01*
X8540Y-3055D01*
X8510Y-3085D01*
X8510Y-3415D01*
X8740Y-3415D01*
X8770Y-3385D01*
X8770Y-3198D01*
X8770Y-3701D01*
X8770Y-3515D01*
X8740Y-3485D01*
X8510Y-3485D01*
X8510Y-3492D01*
X8440Y-3492D01*
X8440Y-3485D01*
X8440Y-3415D01*
X8440Y-3085D01*
X8410Y-3055D01*
X8276Y-3054D01*
X8232Y-3073D01*
X8198Y-3106D01*
X8180Y-3151D01*
X8179Y-3198D01*
X8180Y-3385D01*
X8210Y-3415D01*
X8440Y-3415D01*
X8440Y-3485D01*
X8210Y-3485D01*
X8180Y-3515D01*
X8179Y-3701D01*
X8180Y-3748D01*
X8192Y-3780D01*
X8050Y-3780D01*
X8007Y-3780D01*
X8019Y-3748D01*
X8020Y-3701D01*
X8020Y-3151D01*
X8001Y-3107D01*
X7968Y-3073D01*
X7948Y-3065D01*
X7954Y-3050D01*
X7955Y-2949D01*
X7916Y-2855D01*
X7844Y-2783D01*
X7750Y-2745D01*
X7649Y-2744D01*
X7555Y-2783D01*
X7483Y-2855D01*
X7445Y-2949D01*
X7444Y-3050D01*
X7462Y-3092D01*
X7448Y-3106D01*
X7430Y-3151D01*
X7429Y-3198D01*
X7429Y-3330D01*
X7220Y-3330D01*
X7220Y-3301D01*
X7201Y-3257D01*
X7168Y-3223D01*
X7123Y-3205D01*
X7076Y-3204D01*
X6876Y-3204D01*
X6832Y-3223D01*
X6798Y-3256D01*
X6780Y-3301D01*
X6779Y-3348D01*
X6779Y-3798D01*
X6780Y-3798D01*
X6780Y-4130D01*
X6720Y-4130D01*
X6720Y-3751D01*
X6720Y-3301D01*
X6701Y-3257D01*
X6668Y-3223D01*
X6623Y-3205D01*
X6576Y-3204D01*
X6376Y-3204D01*
X6332Y-3223D01*
X6298Y-3256D01*
X6280Y-3301D01*
X6279Y-3348D01*
X6279Y-3798D01*
X6298Y-3842D01*
X6331Y-3876D01*
X6376Y-3894D01*
X6423Y-3895D01*
X6623Y-3895D01*
X6667Y-3876D01*
X6701Y-3843D01*
X6719Y-3798D01*
X6720Y-3751D01*
X6720Y-4130D01*
X6400Y-4130D01*
X5720Y-4130D01*
X5720Y-3751D01*
X5720Y-3348D01*
X5719Y-3301D01*
X5701Y-3256D01*
X5667Y-3223D01*
X5623Y-3204D01*
X5565Y-3205D01*
X5535Y-3235D01*
X5535Y-3515D01*
X5690Y-3515D01*
X5720Y-3485D01*
X5720Y-3348D01*
X5720Y-3751D01*
X5720Y-3615D01*
X5690Y-3585D01*
X5535Y-3585D01*
X5535Y-3865D01*
X5565Y-3895D01*
X5623Y-3895D01*
X5667Y-3876D01*
X5701Y-3843D01*
X5719Y-3798D01*
X5720Y-3751D01*
X5720Y-4130D01*
X5465Y-4130D01*
X5465Y-3865D01*
X5465Y-3585D01*
X5465Y-3515D01*
X5465Y-3235D01*
X5435Y-3205D01*
X5376Y-3204D01*
X5332Y-3223D01*
X5298Y-3256D01*
X5280Y-3301D01*
X5279Y-3348D01*
X5280Y-3485D01*
X5310Y-3515D01*
X5465Y-3515D01*
X5465Y-3585D01*
X5310Y-3585D01*
X5280Y-3615D01*
X5279Y-3751D01*
X5280Y-3798D01*
X5298Y-3843D01*
X5332Y-3876D01*
X5376Y-3895D01*
X5435Y-3895D01*
X5465Y-3865D01*
X5465Y-4130D01*
X5220Y-4130D01*
X5220Y-3751D01*
X5220Y-3301D01*
X5220Y-3301D01*
X5220Y-3050D01*
X5203Y-2965D01*
X5203Y-2965D01*
X5155Y-2894D01*
X4305Y-2044D01*
X4234Y-1996D01*
X4150Y-1980D01*
X4000Y-1980D01*
X-250Y-1980D01*
X-334Y-1996D01*
X-369Y-2020D01*
X-405Y-2044D01*
X-955Y-2594D01*
X-955Y-2594D01*
X-1060Y-2698D01*
X-1144Y-2733D01*
X-1216Y-2805D01*
X-1254Y-2899D01*
X-1255Y-3000D01*
X-1220Y-3085D01*
X-1220Y-3325D01*
X-1220Y-3348D01*
X-1220Y-3798D01*
X-1201Y-3842D01*
X-1168Y-3876D01*
X-1123Y-3894D01*
X-1076Y-3895D01*
X-876Y-3895D01*
X-832Y-3876D01*
X-798Y-3843D01*
X-780Y-3798D01*
X-779Y-3751D01*
X-779Y-3301D01*
X-780Y-3301D01*
X-780Y-3085D01*
X-748Y-3009D01*
X-644Y-2905D01*
X-644Y-2905D01*
X-644Y-2905D01*
X-158Y-2420D01*
X4000Y-2420D01*
X4058Y-2420D01*
X4780Y-3141D01*
X4780Y-3325D01*
X4779Y-3348D01*
X4779Y-3798D01*
X4798Y-3842D01*
X4831Y-3876D01*
X4876Y-3894D01*
X4923Y-3895D01*
X5123Y-3895D01*
X5167Y-3876D01*
X5201Y-3843D01*
X5219Y-3798D01*
X5220Y-3751D01*
X5220Y-4130D01*
X4722Y-4130D01*
X4754Y-4050D01*
X4755Y-3949D01*
X4720Y-3864D01*
X4720Y-3774D01*
X4720Y-3751D01*
X4720Y-3301D01*
X4701Y-3257D01*
X4668Y-3223D01*
X4623Y-3205D01*
X4576Y-3204D01*
X4376Y-3204D01*
X4332Y-3223D01*
X4298Y-3256D01*
X4280Y-3301D01*
X4279Y-3348D01*
X4279Y-3798D01*
X4280Y-3798D01*
X4280Y-3864D01*
X4245Y-3949D01*
X4244Y-4033D01*
X4220Y-4008D01*
X4220Y-3774D01*
X4220Y-3751D01*
X4220Y-3301D01*
X4201Y-3257D01*
X4168Y-3223D01*
X4123Y-3205D01*
X4076Y-3204D01*
X3876Y-3204D01*
X3832Y-3223D01*
X3798Y-3256D01*
X3780Y-3301D01*
X3779Y-3348D01*
X3779Y-3798D01*
X3780Y-3798D01*
X3780Y-4100D01*
X3785Y-4130D01*
X3720Y-4130D01*
X3720Y-3751D01*
X3720Y-3301D01*
X3720Y-3301D01*
X3720Y-3250D01*
X3720Y-3050D01*
X3719Y-3049D01*
X3703Y-2965D01*
X3655Y-2894D01*
X3655Y-2894D01*
X3305Y-2544D01*
X3234Y-2496D01*
X3150Y-2480D01*
X250Y-2480D01*
X165Y-2496D01*
X94Y-2544D01*
X-155Y-2794D01*
X-203Y-2865D01*
X-220Y-2950D01*
X-220Y-3325D01*
X-220Y-3348D01*
X-220Y-3798D01*
X-201Y-3842D01*
X-168Y-3876D01*
X-123Y-3894D01*
X-76Y-3895D01*
X123Y-3895D01*
X167Y-3876D01*
X201Y-3843D01*
X219Y-3798D01*
X220Y-3751D01*
X220Y-3301D01*
X220Y-3301D01*
X220Y-3041D01*
X245Y-3016D01*
X244Y-3100D01*
X280Y-3185D01*
X280Y-3325D01*
X279Y-3348D01*
X279Y-3798D01*
X298Y-3842D01*
X331Y-3876D01*
X376Y-3894D01*
X423Y-3895D01*
X623Y-3895D01*
X667Y-3876D01*
X701Y-3843D01*
X719Y-3798D01*
X720Y-3751D01*
X720Y-3301D01*
X720Y-3301D01*
X720Y-3185D01*
X754Y-3100D01*
X755Y-2999D01*
X722Y-2920D01*
X3058Y-2920D01*
X3280Y-3141D01*
X3280Y-3250D01*
X3280Y-3325D01*
X3279Y-3348D01*
X3279Y-3798D01*
X3298Y-3842D01*
X3331Y-3876D01*
X3376Y-3894D01*
X3423Y-3895D01*
X3623Y-3895D01*
X3667Y-3876D01*
X3701Y-3843D01*
X3719Y-3798D01*
X3720Y-3751D01*
X3720Y-4130D01*
X2770Y-4130D01*
X2770Y-3701D01*
X2770Y-3198D01*
X2769Y-3151D01*
X2751Y-3106D01*
X2717Y-3073D01*
X2673Y-3054D01*
X2540Y-3055D01*
X2510Y-3085D01*
X2510Y-3415D01*
X2740Y-3415D01*
X2770Y-3385D01*
X2770Y-3198D01*
X2770Y-3701D01*
X2770Y-3515D01*
X2740Y-3485D01*
X2510Y-3485D01*
X2510Y-3815D01*
X2540Y-3845D01*
X2673Y-3845D01*
X2717Y-3826D01*
X2751Y-3793D01*
X2769Y-3748D01*
X2770Y-3701D01*
X2770Y-4130D01*
X2440Y-4130D01*
X2440Y-3815D01*
X2440Y-3485D01*
X2440Y-3415D01*
X2440Y-3085D01*
X2410Y-3055D01*
X2276Y-3054D01*
X2232Y-3073D01*
X2198Y-3106D01*
X2180Y-3151D01*
X2179Y-3198D01*
X2180Y-3385D01*
X2210Y-3415D01*
X2440Y-3415D01*
X2440Y-3485D01*
X2210Y-3485D01*
X2180Y-3515D01*
X2179Y-3701D01*
X2180Y-3748D01*
X2198Y-3793D01*
X2232Y-3826D01*
X2276Y-3845D01*
X2410Y-3845D01*
X2440Y-3815D01*
X2440Y-4130D01*
X1650Y-4130D01*
X1341Y-4130D01*
X1220Y-4008D01*
X1220Y-3774D01*
X1220Y-3770D01*
X1438Y-3770D01*
X1448Y-3792D01*
X1481Y-3826D01*
X1526Y-3844D01*
X1573Y-3845D01*
X1923Y-3845D01*
X1967Y-3826D01*
X2001Y-3793D01*
X2019Y-3748D01*
X2020Y-3701D01*
X2020Y-3151D01*
X2001Y-3107D01*
X1968Y-3073D01*
X1923Y-3055D01*
X1876Y-3054D01*
X1526Y-3054D01*
X1482Y-3073D01*
X1448Y-3106D01*
X1430Y-3151D01*
X1429Y-3198D01*
X1429Y-3330D01*
X1220Y-3330D01*
X1220Y-3301D01*
X1201Y-3257D01*
X1168Y-3223D01*
X1123Y-3205D01*
X1076Y-3204D01*
X876Y-3204D01*
X832Y-3223D01*
X798Y-3256D01*
X780Y-3301D01*
X779Y-3348D01*
X779Y-3798D01*
X780Y-3798D01*
X780Y-4100D01*
X785Y-4130D01*
X550Y-4130D01*
X-279Y-4130D01*
X-279Y-3751D01*
X-279Y-3348D01*
X-280Y-3301D01*
X-298Y-3256D01*
X-332Y-3223D01*
X-376Y-3204D01*
X-435Y-3205D01*
X-465Y-3235D01*
X-465Y-3515D01*
X-310Y-3515D01*
X-280Y-3485D01*
X-279Y-3348D01*
X-279Y-3751D01*
X-280Y-3615D01*
X-310Y-3585D01*
X-465Y-3585D01*
X-465Y-3865D01*
X-435Y-3895D01*
X-376Y-3895D01*
X-332Y-3876D01*
X-298Y-3843D01*
X-280Y-3798D01*
X-279Y-3751D01*
X-279Y-4130D01*
X-535Y-4130D01*
X-535Y-3865D01*
X-535Y-3585D01*
X-535Y-3515D01*
X-535Y-3235D01*
X-565Y-3205D01*
X-623Y-3204D01*
X-667Y-3223D01*
X-701Y-3256D01*
X-719Y-3301D01*
X-720Y-3348D01*
X-720Y-3485D01*
X-690Y-3515D01*
X-535Y-3515D01*
X-535Y-3585D01*
X-690Y-3585D01*
X-720Y-3615D01*
X-720Y-3751D01*
X-719Y-3798D01*
X-701Y-3843D01*
X-667Y-3876D01*
X-623Y-3895D01*
X-565Y-3895D01*
X-535Y-3865D01*
X-535Y-4130D01*
X-1277Y-4130D01*
X-1245Y-4050D01*
X-1244Y-3949D01*
X-1280Y-3864D01*
X-1280Y-3774D01*
X-1279Y-3751D01*
X-1279Y-3301D01*
X-1298Y-3257D01*
X-1331Y-3223D01*
X-1376Y-3205D01*
X-1423Y-3204D01*
X-1623Y-3204D01*
X-1667Y-3223D01*
X-1701Y-3256D01*
X-1719Y-3301D01*
X-1720Y-3348D01*
X-1720Y-3798D01*
X-1720Y-3798D01*
X-1720Y-3864D01*
X-1754Y-3949D01*
X-1754Y-3983D01*
X-1780Y-3958D01*
X-1780Y-3774D01*
X-1779Y-3751D01*
X-1779Y-3301D01*
X-1798Y-3257D01*
X-1831Y-3223D01*
X-1876Y-3205D01*
X-1923Y-3204D01*
X-2123Y-3204D01*
X-2167Y-3223D01*
X-2201Y-3256D01*
X-2219Y-3301D01*
X-2220Y-3348D01*
X-2220Y-3798D01*
X-2220Y-3798D01*
X-2220Y-4050D01*
X-2204Y-4130D01*
X-2244Y-4130D01*
X-2244Y-2899D01*
X-2279Y-2814D01*
X-2279Y-1251D01*
X-2280Y-1115D01*
X-2310Y-1085D01*
X-2465Y-1085D01*
X-2465Y-1365D01*
X-2435Y-1395D01*
X-2376Y-1395D01*
X-2332Y-1376D01*
X-2298Y-1343D01*
X-2280Y-1298D01*
X-2279Y-1251D01*
X-2279Y-2814D01*
X-2283Y-2805D01*
X-2355Y-2733D01*
X-2449Y-2695D01*
X-2535Y-2694D01*
X-2535Y-1365D01*
X-2535Y-1085D01*
X-2690Y-1085D01*
X-2720Y-1115D01*
X-2720Y-1251D01*
X-2719Y-1298D01*
X-2701Y-1343D01*
X-2667Y-1376D01*
X-2623Y-1395D01*
X-2565Y-1395D01*
X-2535Y-1365D01*
X-2535Y-2694D01*
X-2550Y-2694D01*
X-2644Y-2733D01*
X-2716Y-2805D01*
X-2754Y-2899D01*
X-2755Y-3000D01*
X-2720Y-3085D01*
X-2720Y-3325D01*
X-2720Y-3348D01*
X-2720Y-3798D01*
X-2701Y-3842D01*
X-2668Y-3876D01*
X-2623Y-3894D01*
X-2576Y-3895D01*
X-2376Y-3895D01*
X-2332Y-3876D01*
X-2298Y-3843D01*
X-2280Y-3798D01*
X-2279Y-3751D01*
X-2279Y-3301D01*
X-2280Y-3301D01*
X-2280Y-3085D01*
X-2245Y-3000D01*
X-2244Y-2899D01*
X-2244Y-4130D01*
X-3454Y-4130D01*
X-3454Y-2651D01*
X-3454Y-1651D01*
X-3530Y-1469D01*
X-3669Y-1330D01*
X-3851Y-1255D01*
X-4048Y-1254D01*
X-4230Y-1330D01*
X-4369Y-1469D01*
X-4444Y-1651D01*
X-4445Y-1848D01*
X-4369Y-2030D01*
X-4230Y-2169D01*
X-4048Y-2244D01*
X-3851Y-2245D01*
X-3669Y-2169D01*
X-3530Y-2030D01*
X-3455Y-1848D01*
X-3454Y-1651D01*
X-3454Y-2651D01*
X-3530Y-2469D01*
X-3669Y-2330D01*
X-3851Y-2255D01*
X-4048Y-2254D01*
X-4230Y-2330D01*
X-4369Y-2469D01*
X-4444Y-2651D01*
X-4445Y-2848D01*
X-4369Y-3030D01*
X-4230Y-3169D01*
X-4048Y-3244D01*
X-3851Y-3245D01*
X-3669Y-3169D01*
X-3530Y-3030D01*
X-3455Y-2848D01*
X-3454Y-2651D01*
X-3454Y-4130D01*
X-4150Y-4130D01*
X-4454Y-4130D01*
X-4454Y-2651D01*
X-4454Y-1651D01*
X-4530Y-1469D01*
X-4669Y-1330D01*
X-4851Y-1255D01*
X-5048Y-1254D01*
X-5230Y-1330D01*
X-5369Y-1469D01*
X-5444Y-1651D01*
X-5445Y-1848D01*
X-5369Y-2030D01*
X-5230Y-2169D01*
X-5048Y-2244D01*
X-4851Y-2245D01*
X-4669Y-2169D01*
X-4530Y-2030D01*
X-4455Y-1848D01*
X-4454Y-1651D01*
X-4454Y-2651D01*
X-4530Y-2469D01*
X-4669Y-2330D01*
X-4851Y-2255D01*
X-5048Y-2254D01*
X-5230Y-2330D01*
X-5369Y-2469D01*
X-5444Y-2651D01*
X-5445Y-2848D01*
X-5369Y-3030D01*
X-5230Y-3169D01*
X-5048Y-3244D01*
X-4851Y-3245D01*
X-4669Y-3169D01*
X-4530Y-3030D01*
X-4455Y-2848D01*
X-4454Y-2651D01*
X-4454Y-4130D01*
X-4858Y-4130D01*
X-5730Y-3258D01*
X-5730Y-3194D01*
X-5669Y-3169D01*
X-5530Y-3030D01*
X-5455Y-2848D01*
X-5454Y-2651D01*
X-5454Y-1651D01*
X-5530Y-1469D01*
X-5669Y-1330D01*
X-5851Y-1255D01*
X-6004Y-1254D01*
X-6004Y-351D01*
X-6005Y-65D01*
X-6035Y-35D01*
X-6465Y-35D01*
X-6465Y-465D01*
X-6435Y-495D01*
X-6101Y-495D01*
X-6057Y-476D01*
X-6023Y-443D01*
X-6005Y-398D01*
X-6004Y-351D01*
X-6004Y-1254D01*
X-6048Y-1254D01*
X-6230Y-1330D01*
X-6369Y-1469D01*
X-6444Y-1651D01*
X-6445Y-1848D01*
X-6369Y-2030D01*
X-6230Y-2169D01*
X-6048Y-2244D01*
X-5851Y-2245D01*
X-5669Y-2169D01*
X-5530Y-2030D01*
X-5455Y-1848D01*
X-5454Y-1651D01*
X-5454Y-2651D01*
X-5530Y-2469D01*
X-5669Y-2330D01*
X-5851Y-2255D01*
X-6048Y-2254D01*
X-6230Y-2330D01*
X-6369Y-2469D01*
X-6444Y-2651D01*
X-6445Y-2848D01*
X-6369Y-3030D01*
X-6230Y-3169D01*
X-6170Y-3194D01*
X-6170Y-3350D01*
X-6153Y-3434D01*
X-6105Y-3505D01*
X-5250Y-4360D01*
X-6860Y-4360D01*
X-6860Y-495D01*
X-6565Y-495D01*
X-6535Y-465D01*
X-6535Y-35D01*
X-6542Y-35D01*
X-6542Y35D01*
X-6535Y35D01*
X-6535Y42D01*
X-6465Y42D01*
X-6465Y35D01*
X-6035Y35D01*
X-6005Y65D01*
X-6004Y351D01*
X-6004Y360D01*
X-5839Y360D01*
X-5919Y280D01*
X-5994Y98D01*
X-5995Y-98D01*
X-5919Y-280D01*
X-5780Y-419D01*
X-5598Y-494D01*
X-5401Y-495D01*
X-5219Y-419D01*
X-5080Y-280D01*
X-5005Y-98D01*
X-5004Y98D01*
X-5080Y280D01*
X-5160Y360D01*
X-4839Y360D01*
X-4919Y280D01*
X-4994Y98D01*
X-4995Y-98D01*
X-4919Y-280D01*
X-4780Y-419D01*
X-4598Y-494D01*
X-4401Y-495D01*
X-4219Y-419D01*
X-4080Y-280D01*
X-4005Y-98D01*
X-4004Y98D01*
X-4080Y280D01*
X-4160Y360D01*
X-3839Y360D01*
X-3919Y280D01*
X-3994Y98D01*
X-3995Y-98D01*
X-3919Y-280D01*
X-3780Y-419D01*
X-3598Y-494D01*
X-3401Y-495D01*
X-3341Y-469D01*
X-3055Y-755D01*
X-3055Y-755D01*
X-2984Y-803D01*
X-2900Y-820D01*
X-2719Y-820D01*
X-2720Y-848D01*
X-2720Y-985D01*
X-2690Y-1015D01*
X-2535Y-1015D01*
X-2535Y-1007D01*
X-2465Y-1007D01*
X-2465Y-1015D01*
X-2310Y-1015D01*
X-2280Y-985D01*
X-2279Y-848D01*
X-2280Y-820D01*
X-2219Y-820D01*
X-2220Y-848D01*
X-2220Y-1298D01*
X-2201Y-1342D01*
X-2168Y-1376D01*
X-2123Y-1394D01*
X-2076Y-1395D01*
X-1876Y-1395D01*
X-1832Y-1376D01*
X-1798Y-1343D01*
X-1780Y-1298D01*
X-1779Y-1251D01*
X-1779Y-820D01*
X-1719Y-820D01*
X-1720Y-848D01*
X-1720Y-1298D01*
X-1701Y-1342D01*
X-1668Y-1376D01*
X-1623Y-1394D01*
X-1576Y-1395D01*
X-1376Y-1395D01*
X-1332Y-1376D01*
X-1298Y-1343D01*
X-1280Y-1298D01*
X-1279Y-1251D01*
X-1279Y-820D01*
X-1219Y-820D01*
X-1220Y-848D01*
X-1220Y-1298D01*
X-1201Y-1342D01*
X-1168Y-1376D01*
X-1123Y-1394D01*
X-1076Y-1395D01*
X-876Y-1395D01*
X-832Y-1376D01*
X-798Y-1343D01*
X-780Y-1298D01*
X-779Y-1251D01*
X-779Y-820D01*
X-719Y-820D01*
X-720Y-848D01*
X-720Y-1298D01*
X-701Y-1342D01*
X-668Y-1376D01*
X-623Y-1394D01*
X-576Y-1395D01*
X-376Y-1395D01*
X-332Y-1376D01*
X-298Y-1343D01*
X-280Y-1298D01*
X-279Y-1251D01*
X-279Y-831D01*
X-220Y-891D01*
X-220Y-1298D01*
X-201Y-1342D01*
X-168Y-1376D01*
X-123Y-1394D01*
X-76Y-1395D01*
X123Y-1395D01*
X167Y-1376D01*
X201Y-1343D01*
X219Y-1298D01*
X220Y-1251D01*
X220Y-820D01*
X280Y-820D01*
X280Y-825D01*
X279Y-848D01*
X279Y-1298D01*
X298Y-1342D01*
X331Y-1376D01*
X376Y-1394D01*
X423Y-1395D01*
X623Y-1395D01*
X667Y-1376D01*
X701Y-1343D01*
X719Y-1298D01*
X720Y-1251D01*
X720Y-801D01*
X720Y-801D01*
X720Y-700D01*
X703Y-615D01*
X703Y-615D01*
X655Y-544D01*
X603Y-492D01*
X658Y-469D01*
X780Y-591D01*
X780Y-825D01*
X779Y-848D01*
X779Y-1298D01*
X798Y-1342D01*
X831Y-1376D01*
X876Y-1394D01*
X923Y-1395D01*
X1123Y-1395D01*
X1167Y-1376D01*
X1201Y-1343D01*
X1219Y-1298D01*
X1220Y-1251D01*
X1220Y-801D01*
X1220Y-801D01*
X1220Y-500D01*
X1203Y-415D01*
X1203Y-415D01*
X1178Y-378D01*
X1219Y-419D01*
X1401Y-494D01*
X1598Y-495D01*
X1780Y-419D01*
X1919Y-280D01*
X1994Y-98D01*
X1995Y98D01*
X1919Y280D01*
X1839Y360D01*
X2160Y360D01*
X2080Y280D01*
X2005Y98D01*
X2004Y-98D01*
X2080Y-280D01*
X2219Y-419D01*
X2401Y-494D01*
X2598Y-495D01*
X2658Y-469D01*
X2944Y-755D01*
X2944Y-755D01*
X3015Y-803D01*
X3100Y-820D01*
X3280Y-820D01*
X3279Y-848D01*
X3280Y-985D01*
X3310Y-1015D01*
X3465Y-1015D01*
X3465Y-1007D01*
X3535Y-1007D01*
X3535Y-1015D01*
X3690Y-1015D01*
X3720Y-985D01*
X3720Y-848D01*
X3719Y-820D01*
X3758Y-820D01*
X3779Y-841D01*
X3779Y-848D01*
X3779Y-1298D01*
X3798Y-1342D01*
X3831Y-1376D01*
X3876Y-1394D01*
X3923Y-1395D01*
X4123Y-1395D01*
X4167Y-1376D01*
X4201Y-1343D01*
X4219Y-1298D01*
X4220Y-1251D01*
X4220Y-801D01*
X4220Y-801D01*
X4220Y-772D01*
X4260Y-772D01*
X4280Y-791D01*
X4280Y-825D01*
X4279Y-848D01*
X4279Y-1298D01*
X4298Y-1342D01*
X4331Y-1376D01*
X4376Y-1394D01*
X4423Y-1395D01*
X4623Y-1395D01*
X4667Y-1376D01*
X4701Y-1343D01*
X4719Y-1298D01*
X4720Y-1251D01*
X4720Y-801D01*
X4720Y-801D01*
X4720Y-700D01*
X4703Y-615D01*
X4703Y-615D01*
X4655Y-544D01*
X4603Y-492D01*
X4658Y-469D01*
X4780Y-591D01*
X4780Y-825D01*
X4779Y-848D01*
X4779Y-1298D01*
X4798Y-1342D01*
X4831Y-1376D01*
X4876Y-1394D01*
X4923Y-1395D01*
X5123Y-1395D01*
X5167Y-1376D01*
X5201Y-1343D01*
X5219Y-1298D01*
X5220Y-1251D01*
X5220Y-801D01*
X5220Y-801D01*
X5220Y-500D01*
X5203Y-415D01*
X5203Y-415D01*
X5178Y-378D01*
X5219Y-419D01*
X5280Y-444D01*
X5280Y-825D01*
X5279Y-848D01*
X5279Y-1298D01*
X5298Y-1342D01*
X5331Y-1376D01*
X5376Y-1394D01*
X5423Y-1395D01*
X5623Y-1395D01*
X5667Y-1376D01*
X5701Y-1343D01*
X5719Y-1298D01*
X5720Y-1251D01*
X5720Y-801D01*
X5720Y-801D01*
X5720Y-444D01*
X5780Y-419D01*
X5822Y-377D01*
X5796Y-415D01*
X5780Y-500D01*
X5780Y-825D01*
X5779Y-848D01*
X5779Y-1298D01*
X5798Y-1342D01*
X5831Y-1376D01*
X5876Y-1394D01*
X5923Y-1395D01*
X6123Y-1395D01*
X6167Y-1376D01*
X6201Y-1343D01*
X6219Y-1298D01*
X6220Y-1251D01*
X6220Y-801D01*
X6220Y-801D01*
X6220Y-591D01*
X6341Y-470D01*
X6401Y-494D01*
X6443Y-494D01*
X6344Y-594D01*
X6296Y-665D01*
X6280Y-750D01*
X6280Y-825D01*
X6279Y-848D01*
X6279Y-1298D01*
X6298Y-1342D01*
X6331Y-1376D01*
X6376Y-1394D01*
X6423Y-1395D01*
X6623Y-1395D01*
X6667Y-1376D01*
X6701Y-1343D01*
X6719Y-1298D01*
X6720Y-1251D01*
X6720Y-841D01*
X6784Y-776D01*
X6780Y-800D01*
X6780Y-825D01*
X6779Y-848D01*
X6779Y-1298D01*
X6798Y-1342D01*
X6831Y-1376D01*
X6876Y-1394D01*
X6923Y-1395D01*
X7123Y-1395D01*
X7167Y-1376D01*
X7201Y-1343D01*
X7219Y-1298D01*
X7220Y-1251D01*
X7220Y-891D01*
X7291Y-820D01*
X7900Y-820D01*
X7984Y-803D01*
X7984Y-803D01*
X8055Y-755D01*
X8341Y-470D01*
X8401Y-494D01*
X8598Y-495D01*
X8780Y-419D01*
X8919Y-280D01*
X8994Y-98D01*
X8995Y98D01*
X8919Y280D01*
X8839Y360D01*
X9160Y360D01*
X9080Y280D01*
X9005Y98D01*
X9004Y-98D01*
X9080Y-280D01*
X9219Y-419D01*
X9401Y-494D01*
X9598Y-495D01*
X9780Y-419D01*
X9919Y-280D01*
X9994Y-98D01*
X9995Y98D01*
X9919Y280D01*
X9839Y360D01*
X10160Y360D01*
X10080Y280D01*
X10005Y98D01*
X10004Y-98D01*
X10080Y-280D01*
X10219Y-419D01*
X10401Y-494D01*
X10598Y-495D01*
X10780Y-419D01*
X10860Y-339D01*
X10860Y-504D01*
X10851Y-504D01*
X10565Y-505D01*
X10535Y-535D01*
X10535Y-965D01*
X10542Y-965D01*
X10542Y-1035D01*
X10535Y-1035D01*
X10535Y-1465D01*
X10565Y-1495D01*
X10851Y-1495D01*
X10860Y-1495D01*
X10860Y-1660D01*
X10780Y-1580D01*
X10598Y-1505D01*
X10465Y-1504D01*
X10465Y-1465D01*
X10465Y-1035D01*
X10465Y-965D01*
X10465Y-535D01*
X10435Y-505D01*
X10148Y-504D01*
X10101Y-505D01*
X10056Y-523D01*
X10023Y-557D01*
X10004Y-601D01*
X10005Y-935D01*
X10035Y-965D01*
X10465Y-965D01*
X10465Y-1035D01*
X10035Y-1035D01*
X10005Y-1065D01*
X10004Y-1398D01*
X10023Y-1442D01*
X10056Y-1476D01*
X10101Y-1494D01*
X10148Y-1495D01*
X10435Y-1495D01*
X10465Y-1465D01*
X10465Y-1504D01*
X10401Y-1504D01*
X10219Y-1580D01*
X10080Y-1719D01*
X10055Y-1780D01*
X7100Y-1780D01*
X7015Y-1796D01*
X6944Y-1844D01*
X6000Y-2788D01*
X4755Y-1544D01*
X4684Y-1496D01*
X4600Y-1480D01*
X3850Y-1480D01*
X3720Y-1480D01*
X3720Y-1251D01*
X3720Y-1115D01*
X3690Y-1085D01*
X3535Y-1085D01*
X3535Y-1365D01*
X3565Y-1395D01*
X3623Y-1395D01*
X3667Y-1376D01*
X3701Y-1343D01*
X3719Y-1298D01*
X3720Y-1251D01*
X3720Y-1480D01*
X3465Y-1480D01*
X3465Y-1365D01*
X3465Y-1085D01*
X3310Y-1085D01*
X3280Y-1115D01*
X3279Y-1251D01*
X3280Y-1298D01*
X3298Y-1343D01*
X3332Y-1376D01*
X3376Y-1395D01*
X3435Y-1395D01*
X3465Y-1365D01*
X3465Y-1480D01*
X2200Y-1480D01*
X835Y-1480D01*
X750Y-1445D01*
X649Y-1444D01*
X555Y-1483D01*
X483Y-1555D01*
X445Y-1649D01*
X444Y-1750D01*
X483Y-1844D01*
X555Y-1916D01*
X649Y-1954D01*
X750Y-1955D01*
X835Y-1920D01*
X2200Y-1920D01*
X3850Y-1920D01*
X4508Y-1920D01*
X5780Y-3191D01*
X5780Y-3325D01*
X5779Y-3348D01*
X5779Y-3798D01*
X5798Y-3842D01*
X5831Y-3876D01*
X5876Y-3894D01*
X5923Y-3895D01*
X6123Y-3895D01*
X6167Y-3876D01*
X6201Y-3843D01*
X6219Y-3798D01*
X6220Y-3751D01*
X6220Y-3301D01*
X6220Y-3301D01*
X6220Y-3191D01*
X7191Y-2220D01*
X10055Y-2220D01*
X10080Y-2280D01*
X10219Y-2419D01*
X10401Y-2494D01*
X10598Y-2495D01*
X10780Y-2419D01*
X10860Y-2339D01*
X10860Y-2660D01*
X10860Y-2660D01*
G37*
G54D17*
X10860Y-2660D02*
X10780Y-2580D01*
X10598Y-2505D01*
X10401Y-2504D01*
X10219Y-2580D01*
X10080Y-2719D01*
X10005Y-2901D01*
X10004Y-3098D01*
X10030Y-3158D01*
X9408Y-3780D01*
X8757Y-3780D01*
X8769Y-3748D01*
X8770Y-3701D01*
X8770Y-3198D01*
X8769Y-3151D01*
X8751Y-3106D01*
X8717Y-3073D01*
X8673Y-3054D01*
X8540Y-3055D01*
X8510Y-3085D01*
X8510Y-3415D01*
X8740Y-3415D01*
X8770Y-3385D01*
X8770Y-3198D01*
X8770Y-3701D01*
X8770Y-3515D01*
X8740Y-3485D01*
X8510Y-3485D01*
X8510Y-3492D01*
X8440Y-3492D01*
X8440Y-3485D01*
X8440Y-3415D01*
X8440Y-3085D01*
X8410Y-3055D01*
X8276Y-3054D01*
X8232Y-3073D01*
X8198Y-3106D01*
X8180Y-3151D01*
X8179Y-3198D01*
X8180Y-3385D01*
X8210Y-3415D01*
X8440Y-3415D01*
X8440Y-3485D01*
X8210Y-3485D01*
X8180Y-3515D01*
X8179Y-3701D01*
X8180Y-3748D01*
X8192Y-3780D01*
X8050Y-3780D01*
X8007Y-3780D01*
X8019Y-3748D01*
X8020Y-3701D01*
X8020Y-3151D01*
X8001Y-3107D01*
X7968Y-3073D01*
X7948Y-3065D01*
X7954Y-3050D01*
X7955Y-2949D01*
X7916Y-2855D01*
X7844Y-2783D01*
X7750Y-2745D01*
X7649Y-2744D01*
X7555Y-2783D01*
X7483Y-2855D01*
X7445Y-2949D01*
X7444Y-3050D01*
X7462Y-3092D01*
X7448Y-3106D01*
X7430Y-3151D01*
X7429Y-3198D01*
X7429Y-3330D01*
X7220Y-3330D01*
X7220Y-3301D01*
X7201Y-3257D01*
X7168Y-3223D01*
X7123Y-3205D01*
X7076Y-3204D01*
X6876Y-3204D01*
X6832Y-3223D01*
X6798Y-3256D01*
X6780Y-3301D01*
X6779Y-3348D01*
X6779Y-3798D01*
X6780Y-3798D01*
X6780Y-4130D01*
X6720Y-4130D01*
X6720Y-3751D01*
X6720Y-3301D01*
X6701Y-3257D01*
X6668Y-3223D01*
X6623Y-3205D01*
X6576Y-3204D01*
X6376Y-3204D01*
X6332Y-3223D01*
X6298Y-3256D01*
X6280Y-3301D01*
X6279Y-3348D01*
X6279Y-3798D01*
X6298Y-3842D01*
X6331Y-3876D01*
X6376Y-3894D01*
X6423Y-3895D01*
X6623Y-3895D01*
X6667Y-3876D01*
X6701Y-3843D01*
X6719Y-3798D01*
X6720Y-3751D01*
X6720Y-4130D01*
X6400Y-4130D01*
X5720Y-4130D01*
X5720Y-3751D01*
X5720Y-3348D01*
X5719Y-3301D01*
X5701Y-3256D01*
X5667Y-3223D01*
X5623Y-3204D01*
X5565Y-3205D01*
X5535Y-3235D01*
X5535Y-3515D01*
X5690Y-3515D01*
X5720Y-3485D01*
X5720Y-3348D01*
X5720Y-3751D01*
X5720Y-3615D01*
X5690Y-3585D01*
X5535Y-3585D01*
X5535Y-3865D01*
X5565Y-3895D01*
X5623Y-3895D01*
X5667Y-3876D01*
X5701Y-3843D01*
X5719Y-3798D01*
X5720Y-3751D01*
X5720Y-4130D01*
X5465Y-4130D01*
X5465Y-3865D01*
X5465Y-3585D01*
X5465Y-3515D01*
X5465Y-3235D01*
X5435Y-3205D01*
X5376Y-3204D01*
X5332Y-3223D01*
X5298Y-3256D01*
X5280Y-3301D01*
X5279Y-3348D01*
X5280Y-3485D01*
X5310Y-3515D01*
X5465Y-3515D01*
X5465Y-3585D01*
X5310Y-3585D01*
X5280Y-3615D01*
X5279Y-3751D01*
X5280Y-3798D01*
X5298Y-3843D01*
X5332Y-3876D01*
X5376Y-3895D01*
X5435Y-3895D01*
X5465Y-3865D01*
X5465Y-4130D01*
X5220Y-4130D01*
X5220Y-3751D01*
X5220Y-3301D01*
X5220Y-3301D01*
X5220Y-3050D01*
X5203Y-2965D01*
X5203Y-2965D01*
X5155Y-2894D01*
X4305Y-2044D01*
X4234Y-1996D01*
X4150Y-1980D01*
X4000Y-1980D01*
X-250Y-1980D01*
X-334Y-1996D01*
X-369Y-2020D01*
X-405Y-2044D01*
X-955Y-2594D01*
X-955Y-2594D01*
X-1060Y-2698D01*
X-1144Y-2733D01*
X-1216Y-2805D01*
X-1254Y-2899D01*
X-1255Y-3000D01*
X-1220Y-3085D01*
X-1220Y-3325D01*
X-1220Y-3348D01*
X-1220Y-3798D01*
X-1201Y-3842D01*
X-1168Y-3876D01*
X-1123Y-3894D01*
X-1076Y-3895D01*
X-876Y-3895D01*
X-832Y-3876D01*
X-798Y-3843D01*
X-780Y-3798D01*
X-779Y-3751D01*
X-779Y-3301D01*
X-780Y-3301D01*
X-780Y-3085D01*
X-748Y-3009D01*
X-644Y-2905D01*
X-644Y-2905D01*
X-644Y-2905D01*
X-158Y-2420D01*
X4000Y-2420D01*
X4058Y-2420D01*
X4780Y-3141D01*
X4780Y-3325D01*
X4779Y-3348D01*
X4779Y-3798D01*
X4798Y-3842D01*
X4831Y-3876D01*
X4876Y-3894D01*
X4923Y-3895D01*
X5123Y-3895D01*
X5167Y-3876D01*
X5201Y-3843D01*
X5219Y-3798D01*
X5220Y-3751D01*
X5220Y-4130D01*
X4722Y-4130D01*
X4754Y-4050D01*
X4755Y-3949D01*
X4720Y-3864D01*
X4720Y-3774D01*
X4720Y-3751D01*
X4720Y-3301D01*
X4701Y-3257D01*
X4668Y-3223D01*
X4623Y-3205D01*
X4576Y-3204D01*
X4376Y-3204D01*
X4332Y-3223D01*
X4298Y-3256D01*
X4280Y-3301D01*
X4279Y-3348D01*
X4279Y-3798D01*
X4280Y-3798D01*
X4280Y-3864D01*
X4245Y-3949D01*
X4244Y-4033D01*
X4220Y-4008D01*
X4220Y-3774D01*
X4220Y-3751D01*
X4220Y-3301D01*
X4201Y-3257D01*
X4168Y-3223D01*
X4123Y-3205D01*
X4076Y-3204D01*
X3876Y-3204D01*
X3832Y-3223D01*
X3798Y-3256D01*
X3780Y-3301D01*
X3779Y-3348D01*
X3779Y-3798D01*
X3780Y-3798D01*
X3780Y-4100D01*
X3785Y-4130D01*
X3720Y-4130D01*
X3720Y-3751D01*
X3720Y-3301D01*
X3720Y-3301D01*
X3720Y-3250D01*
X3720Y-3050D01*
X3719Y-3049D01*
X3703Y-2965D01*
X3655Y-2894D01*
X3655Y-2894D01*
X3305Y-2544D01*
X3234Y-2496D01*
X3150Y-2480D01*
X250Y-2480D01*
X165Y-2496D01*
X94Y-2544D01*
X-155Y-2794D01*
X-203Y-2865D01*
X-220Y-2950D01*
X-220Y-3325D01*
X-220Y-3348D01*
X-220Y-3798D01*
X-201Y-3842D01*
X-168Y-3876D01*
X-123Y-3894D01*
X-76Y-3895D01*
X123Y-3895D01*
X167Y-3876D01*
X201Y-3843D01*
X219Y-3798D01*
X220Y-3751D01*
X220Y-3301D01*
X220Y-3301D01*
X220Y-3041D01*
X245Y-3016D01*
X244Y-3100D01*
X280Y-3185D01*
X280Y-3325D01*
X279Y-3348D01*
X279Y-3798D01*
X298Y-3842D01*
X331Y-3876D01*
X376Y-3894D01*
X423Y-3895D01*
X623Y-3895D01*
X667Y-3876D01*
X701Y-3843D01*
X719Y-3798D01*
X720Y-3751D01*
X720Y-3301D01*
X720Y-3301D01*
X720Y-3185D01*
X754Y-3100D01*
X755Y-2999D01*
X722Y-2920D01*
X3058Y-2920D01*
X3280Y-3141D01*
X3280Y-3250D01*
X3280Y-3325D01*
X3279Y-3348D01*
X3279Y-3798D01*
X3298Y-3842D01*
X3331Y-3876D01*
X3376Y-3894D01*
X3423Y-3895D01*
X3623Y-3895D01*
X3667Y-3876D01*
X3701Y-3843D01*
X3719Y-3798D01*
X3720Y-3751D01*
X3720Y-4130D01*
X2770Y-4130D01*
X2770Y-3701D01*
X2770Y-3198D01*
X2769Y-3151D01*
X2751Y-3106D01*
X2717Y-3073D01*
X2673Y-3054D01*
X2540Y-3055D01*
X2510Y-3085D01*
X2510Y-3415D01*
X2740Y-3415D01*
X2770Y-3385D01*
X2770Y-3198D01*
X2770Y-3701D01*
X2770Y-3515D01*
X2740Y-3485D01*
X2510Y-3485D01*
X2510Y-3815D01*
X2540Y-3845D01*
X2673Y-3845D01*
X2717Y-3826D01*
X2751Y-3793D01*
X2769Y-3748D01*
X2770Y-3701D01*
X2770Y-4130D01*
X2440Y-4130D01*
X2440Y-3815D01*
X2440Y-3485D01*
X2440Y-3415D01*
X2440Y-3085D01*
X2410Y-3055D01*
X2276Y-3054D01*
X2232Y-3073D01*
X2198Y-3106D01*
X2180Y-3151D01*
X2179Y-3198D01*
X2180Y-3385D01*
X2210Y-3415D01*
X2440Y-3415D01*
X2440Y-3485D01*
X2210Y-3485D01*
X2180Y-3515D01*
X2179Y-3701D01*
X2180Y-3748D01*
X2198Y-3793D01*
X2232Y-3826D01*
X2276Y-3845D01*
X2410Y-3845D01*
X2440Y-3815D01*
X2440Y-4130D01*
X1650Y-4130D01*
X1341Y-4130D01*
X1220Y-4008D01*
X1220Y-3774D01*
X1220Y-3770D01*
X1438Y-3770D01*
X1448Y-3792D01*
X1481Y-3826D01*
X1526Y-3844D01*
X1573Y-3845D01*
X1923Y-3845D01*
X1967Y-3826D01*
X2001Y-3793D01*
X2019Y-3748D01*
X2020Y-3701D01*
X2020Y-3151D01*
X2001Y-3107D01*
X1968Y-3073D01*
X1923Y-3055D01*
X1876Y-3054D01*
X1526Y-3054D01*
X1482Y-3073D01*
X1448Y-3106D01*
X1430Y-3151D01*
X1429Y-3198D01*
X1429Y-3330D01*
X1220Y-3330D01*
X1220Y-3301D01*
X1201Y-3257D01*
X1168Y-3223D01*
X1123Y-3205D01*
X1076Y-3204D01*
X876Y-3204D01*
X832Y-3223D01*
X798Y-3256D01*
X780Y-3301D01*
X779Y-3348D01*
X779Y-3798D01*
X780Y-3798D01*
X780Y-4100D01*
X785Y-4130D01*
X550Y-4130D01*
X-279Y-4130D01*
X-279Y-3751D01*
X-279Y-3348D01*
X-280Y-3301D01*
X-298Y-3256D01*
X-332Y-3223D01*
X-376Y-3204D01*
X-435Y-3205D01*
X-465Y-3235D01*
X-465Y-3515D01*
X-310Y-3515D01*
X-280Y-3485D01*
X-279Y-3348D01*
X-279Y-3751D01*
X-280Y-3615D01*
X-310Y-3585D01*
X-465Y-3585D01*
X-465Y-3865D01*
X-435Y-3895D01*
X-376Y-3895D01*
X-332Y-3876D01*
X-298Y-3843D01*
X-280Y-3798D01*
X-279Y-3751D01*
X-279Y-4130D01*
X-535Y-4130D01*
X-535Y-3865D01*
X-535Y-3585D01*
X-535Y-3515D01*
X-535Y-3235D01*
X-565Y-3205D01*
X-623Y-3204D01*
X-667Y-3223D01*
X-701Y-3256D01*
X-719Y-3301D01*
X-720Y-3348D01*
X-720Y-3485D01*
X-690Y-3515D01*
X-535Y-3515D01*
X-535Y-3585D01*
X-690Y-3585D01*
X-720Y-3615D01*
X-720Y-3751D01*
X-719Y-3798D01*
X-701Y-3843D01*
X-667Y-3876D01*
X-623Y-3895D01*
X-565Y-3895D01*
X-535Y-3865D01*
X-535Y-4130D01*
X-1277Y-4130D01*
X-1245Y-4050D01*
X-1244Y-3949D01*
X-1280Y-3864D01*
X-1280Y-3774D01*
X-1279Y-3751D01*
X-1279Y-3301D01*
X-1298Y-3257D01*
X-1331Y-3223D01*
X-1376Y-3205D01*
X-1423Y-3204D01*
X-1623Y-3204D01*
X-1667Y-3223D01*
X-1701Y-3256D01*
X-1719Y-3301D01*
X-1720Y-3348D01*
X-1720Y-3798D01*
X-1720Y-3798D01*
X-1720Y-3864D01*
X-1754Y-3949D01*
X-1754Y-3983D01*
X-1780Y-3958D01*
X-1780Y-3774D01*
X-1779Y-3751D01*
X-1779Y-3301D01*
X-1798Y-3257D01*
X-1831Y-3223D01*
X-1876Y-3205D01*
X-1923Y-3204D01*
X-2123Y-3204D01*
X-2167Y-3223D01*
X-2201Y-3256D01*
X-2219Y-3301D01*
X-2220Y-3348D01*
X-2220Y-3798D01*
X-2220Y-3798D01*
X-2220Y-4050D01*
X-2204Y-4130D01*
X-2244Y-4130D01*
X-2244Y-2899D01*
X-2279Y-2814D01*
X-2279Y-1251D01*
X-2280Y-1115D01*
X-2310Y-1085D01*
X-2465Y-1085D01*
X-2465Y-1365D01*
X-2435Y-1395D01*
X-2376Y-1395D01*
X-2332Y-1376D01*
X-2298Y-1343D01*
X-2280Y-1298D01*
X-2279Y-1251D01*
X-2279Y-2814D01*
X-2283Y-2805D01*
X-2355Y-2733D01*
X-2449Y-2695D01*
X-2535Y-2694D01*
X-2535Y-1365D01*
X-2535Y-1085D01*
X-2690Y-1085D01*
X-2720Y-1115D01*
X-2720Y-1251D01*
X-2719Y-1298D01*
X-2701Y-1343D01*
X-2667Y-1376D01*
X-2623Y-1395D01*
X-2565Y-1395D01*
X-2535Y-1365D01*
X-2535Y-2694D01*
X-2550Y-2694D01*
X-2644Y-2733D01*
X-2716Y-2805D01*
X-2754Y-2899D01*
X-2755Y-3000D01*
X-2720Y-3085D01*
X-2720Y-3325D01*
X-2720Y-3348D01*
X-2720Y-3798D01*
X-2701Y-3842D01*
X-2668Y-3876D01*
X-2623Y-3894D01*
X-2576Y-3895D01*
X-2376Y-3895D01*
X-2332Y-3876D01*
X-2298Y-3843D01*
X-2280Y-3798D01*
X-2279Y-3751D01*
X-2279Y-3301D01*
X-2280Y-3301D01*
X-2280Y-3085D01*
X-2245Y-3000D01*
X-2244Y-2899D01*
X-2244Y-4130D01*
X-3454Y-4130D01*
X-3454Y-2651D01*
X-3454Y-1651D01*
X-3530Y-1469D01*
X-3669Y-1330D01*
X-3851Y-1255D01*
X-4048Y-1254D01*
X-4230Y-1330D01*
X-4369Y-1469D01*
X-4444Y-1651D01*
X-4445Y-1848D01*
X-4369Y-2030D01*
X-4230Y-2169D01*
X-4048Y-2244D01*
X-3851Y-2245D01*
X-3669Y-2169D01*
X-3530Y-2030D01*
X-3455Y-1848D01*
X-3454Y-1651D01*
X-3454Y-2651D01*
X-3530Y-2469D01*
X-3669Y-2330D01*
X-3851Y-2255D01*
X-4048Y-2254D01*
X-4230Y-2330D01*
X-4369Y-2469D01*
X-4444Y-2651D01*
X-4445Y-2848D01*
X-4369Y-3030D01*
X-4230Y-3169D01*
X-4048Y-3244D01*
X-3851Y-3245D01*
X-3669Y-3169D01*
X-3530Y-3030D01*
X-3455Y-2848D01*
X-3454Y-2651D01*
X-3454Y-4130D01*
X-4150Y-4130D01*
X-4454Y-4130D01*
X-4454Y-2651D01*
X-4454Y-1651D01*
X-4530Y-1469D01*
X-4669Y-1330D01*
X-4851Y-1255D01*
X-5048Y-1254D01*
X-5230Y-1330D01*
X-5369Y-1469D01*
X-5444Y-1651D01*
X-5445Y-1848D01*
X-5369Y-2030D01*
X-5230Y-2169D01*
X-5048Y-2244D01*
X-4851Y-2245D01*
X-4669Y-2169D01*
X-4530Y-2030D01*
X-4455Y-1848D01*
X-4454Y-1651D01*
X-4454Y-2651D01*
X-4530Y-2469D01*
X-4669Y-2330D01*
X-4851Y-2255D01*
X-5048Y-2254D01*
X-5230Y-2330D01*
X-5369Y-2469D01*
X-5444Y-2651D01*
X-5445Y-2848D01*
X-5369Y-3030D01*
X-5230Y-3169D01*
X-5048Y-3244D01*
X-4851Y-3245D01*
X-4669Y-3169D01*
X-4530Y-3030D01*
X-4455Y-2848D01*
X-4454Y-2651D01*
X-4454Y-4130D01*
X-4858Y-4130D01*
X-5730Y-3258D01*
X-5730Y-3194D01*
X-5669Y-3169D01*
X-5530Y-3030D01*
X-5455Y-2848D01*
X-5454Y-2651D01*
X-5454Y-1651D01*
X-5530Y-1469D01*
X-5669Y-1330D01*
X-5851Y-1255D01*
X-6004Y-1254D01*
X-6004Y-351D01*
X-6005Y-65D01*
X-6035Y-35D01*
X-6465Y-35D01*
X-6465Y-465D01*
X-6435Y-495D01*
X-6101Y-495D01*
X-6057Y-476D01*
X-6023Y-443D01*
X-6005Y-398D01*
X-6004Y-351D01*
X-6004Y-1254D01*
X-6048Y-1254D01*
X-6230Y-1330D01*
X-6369Y-1469D01*
X-6444Y-1651D01*
X-6445Y-1848D01*
X-6369Y-2030D01*
X-6230Y-2169D01*
X-6048Y-2244D01*
X-5851Y-2245D01*
X-5669Y-2169D01*
X-5530Y-2030D01*
X-5455Y-1848D01*
X-5454Y-1651D01*
X-5454Y-2651D01*
X-5530Y-2469D01*
X-5669Y-2330D01*
X-5851Y-2255D01*
X-6048Y-2254D01*
X-6230Y-2330D01*
X-6369Y-2469D01*
X-6444Y-2651D01*
X-6445Y-2848D01*
X-6369Y-3030D01*
X-6230Y-3169D01*
X-6170Y-3194D01*
X-6170Y-3350D01*
X-6153Y-3434D01*
X-6105Y-3505D01*
X-5250Y-4360D01*
X-6860Y-4360D01*
X-6860Y-495D01*
X-6565Y-495D01*
X-6535Y-465D01*
X-6535Y-35D01*
X-6542Y-35D01*
X-6542Y35D01*
X-6535Y35D01*
X-6535Y42D01*
X-6465Y42D01*
X-6465Y35D01*
X-6035Y35D01*
X-6005Y65D01*
X-6004Y351D01*
X-6004Y360D01*
X-5839Y360D01*
X-5919Y280D01*
X-5994Y98D01*
X-5995Y-98D01*
X-5919Y-280D01*
X-5780Y-419D01*
X-5598Y-494D01*
X-5401Y-495D01*
X-5219Y-419D01*
X-5080Y-280D01*
X-5005Y-98D01*
X-5004Y98D01*
X-5080Y280D01*
X-5160Y360D01*
X-4839Y360D01*
X-4919Y280D01*
X-4994Y98D01*
X-4995Y-98D01*
X-4919Y-280D01*
X-4780Y-419D01*
X-4598Y-494D01*
X-4401Y-495D01*
X-4219Y-419D01*
X-4080Y-280D01*
X-4005Y-98D01*
X-4004Y98D01*
X-4080Y280D01*
X-4160Y360D01*
X-3839Y360D01*
X-3919Y280D01*
X-3994Y98D01*
X-3995Y-98D01*
X-3919Y-280D01*
X-3780Y-419D01*
X-3598Y-494D01*
X-3401Y-495D01*
X-3341Y-469D01*
X-3055Y-755D01*
X-3055Y-755D01*
X-2984Y-803D01*
X-2900Y-820D01*
X-2719Y-820D01*
X-2720Y-848D01*
X-2720Y-985D01*
X-2690Y-1015D01*
X-2535Y-1015D01*
X-2535Y-1007D01*
X-2465Y-1007D01*
X-2465Y-1015D01*
X-2310Y-1015D01*
X-2280Y-985D01*
X-2279Y-848D01*
X-2280Y-820D01*
X-2219Y-820D01*
X-2220Y-848D01*
X-2220Y-1298D01*
X-2201Y-1342D01*
X-2168Y-1376D01*
X-2123Y-1394D01*
X-2076Y-1395D01*
X-1876Y-1395D01*
X-1832Y-1376D01*
X-1798Y-1343D01*
X-1780Y-1298D01*
X-1779Y-1251D01*
X-1779Y-820D01*
X-1719Y-820D01*
X-1720Y-848D01*
X-1720Y-1298D01*
X-1701Y-1342D01*
X-1668Y-1376D01*
X-1623Y-1394D01*
X-1576Y-1395D01*
X-1376Y-1395D01*
X-1332Y-1376D01*
X-1298Y-1343D01*
X-1280Y-1298D01*
X-1279Y-1251D01*
X-1279Y-820D01*
X-1219Y-820D01*
X-1220Y-848D01*
X-1220Y-1298D01*
X-1201Y-1342D01*
X-1168Y-1376D01*
X-1123Y-1394D01*
X-1076Y-1395D01*
X-876Y-1395D01*
X-832Y-1376D01*
X-798Y-1343D01*
X-780Y-1298D01*
X-779Y-1251D01*
X-779Y-820D01*
X-719Y-820D01*
X-720Y-848D01*
X-720Y-1298D01*
X-701Y-1342D01*
X-668Y-1376D01*
X-623Y-1394D01*
X-576Y-1395D01*
X-376Y-1395D01*
X-332Y-1376D01*
X-298Y-1343D01*
X-280Y-1298D01*
X-279Y-1251D01*
X-279Y-831D01*
X-220Y-891D01*
X-220Y-1298D01*
X-201Y-1342D01*
X-168Y-1376D01*
X-123Y-1394D01*
X-76Y-1395D01*
X123Y-1395D01*
X167Y-1376D01*
X201Y-1343D01*
X219Y-1298D01*
X220Y-1251D01*
X220Y-820D01*
X280Y-820D01*
X280Y-825D01*
X279Y-848D01*
X279Y-1298D01*
X298Y-1342D01*
X331Y-1376D01*
X376Y-1394D01*
X423Y-1395D01*
X623Y-1395D01*
X667Y-1376D01*
X701Y-1343D01*
X719Y-1298D01*
X720Y-1251D01*
X720Y-801D01*
X720Y-801D01*
X720Y-700D01*
X703Y-615D01*
X703Y-615D01*
X655Y-544D01*
X603Y-492D01*
X658Y-469D01*
X780Y-591D01*
X780Y-825D01*
X779Y-848D01*
X779Y-1298D01*
X798Y-1342D01*
X831Y-1376D01*
X876Y-1394D01*
X923Y-1395D01*
X1123Y-1395D01*
X1167Y-1376D01*
X1201Y-1343D01*
X1219Y-1298D01*
X1220Y-1251D01*
X1220Y-801D01*
X1220Y-801D01*
X1220Y-500D01*
X1203Y-415D01*
X1203Y-415D01*
X1178Y-378D01*
X1219Y-419D01*
X1401Y-494D01*
X1598Y-495D01*
X1780Y-419D01*
X1919Y-280D01*
X1994Y-98D01*
X1995Y98D01*
X1919Y280D01*
X1839Y360D01*
X2160Y360D01*
X2080Y280D01*
X2005Y98D01*
X2004Y-98D01*
X2080Y-280D01*
X2219Y-419D01*
X2401Y-494D01*
X2598Y-495D01*
X2658Y-469D01*
X2944Y-755D01*
X2944Y-755D01*
X3015Y-803D01*
X3100Y-820D01*
X3280Y-820D01*
X3279Y-848D01*
X3280Y-985D01*
X3310Y-1015D01*
X3465Y-1015D01*
X3465Y-1007D01*
X3535Y-1007D01*
X3535Y-1015D01*
X3690Y-1015D01*
X3720Y-985D01*
X3720Y-848D01*
X3719Y-820D01*
X3758Y-820D01*
X3779Y-841D01*
X3779Y-848D01*
X3779Y-1298D01*
X3798Y-1342D01*
X3831Y-1376D01*
X3876Y-1394D01*
X3923Y-1395D01*
X4123Y-1395D01*
X4167Y-1376D01*
X4201Y-1343D01*
X4219Y-1298D01*
X4220Y-1251D01*
X4220Y-801D01*
X4220Y-801D01*
X4220Y-772D01*
X4260Y-772D01*
X4280Y-791D01*
X4280Y-825D01*
X4279Y-848D01*
X4279Y-1298D01*
X4298Y-1342D01*
X4331Y-1376D01*
X4376Y-1394D01*
X4423Y-1395D01*
X4623Y-1395D01*
X4667Y-1376D01*
X4701Y-1343D01*
X4719Y-1298D01*
X4720Y-1251D01*
X4720Y-801D01*
X4720Y-801D01*
X4720Y-700D01*
X4703Y-615D01*
X4703Y-615D01*
X4655Y-544D01*
X4603Y-492D01*
X4658Y-469D01*
X4780Y-591D01*
X4780Y-825D01*
X4779Y-848D01*
X4779Y-1298D01*
X4798Y-1342D01*
X4831Y-1376D01*
X4876Y-1394D01*
X4923Y-1395D01*
X5123Y-1395D01*
X5167Y-1376D01*
X5201Y-1343D01*
X5219Y-1298D01*
X5220Y-1251D01*
X5220Y-801D01*
X5220Y-801D01*
X5220Y-500D01*
X5203Y-415D01*
X5203Y-415D01*
X5178Y-378D01*
X5219Y-419D01*
X5280Y-444D01*
X5280Y-825D01*
X5279Y-848D01*
X5279Y-1298D01*
X5298Y-1342D01*
X5331Y-1376D01*
X5376Y-1394D01*
X5423Y-1395D01*
X5623Y-1395D01*
X5667Y-1376D01*
X5701Y-1343D01*
X5719Y-1298D01*
X5720Y-1251D01*
X5720Y-801D01*
X5720Y-801D01*
X5720Y-444D01*
X5780Y-419D01*
X5822Y-377D01*
X5796Y-415D01*
X5780Y-500D01*
X5780Y-825D01*
X5779Y-848D01*
X5779Y-1298D01*
X5798Y-1342D01*
X5831Y-1376D01*
X5876Y-1394D01*
X5923Y-1395D01*
X6123Y-1395D01*
X6167Y-1376D01*
X6201Y-1343D01*
X6219Y-1298D01*
X6220Y-1251D01*
X6220Y-801D01*
X6220Y-801D01*
X6220Y-591D01*
X6341Y-470D01*
X6401Y-494D01*
X6443Y-494D01*
X6344Y-594D01*
X6296Y-665D01*
X6280Y-750D01*
X6280Y-825D01*
X6279Y-848D01*
X6279Y-1298D01*
X6298Y-1342D01*
X6331Y-1376D01*
X6376Y-1394D01*
X6423Y-1395D01*
X6623Y-1395D01*
X6667Y-1376D01*
X6701Y-1343D01*
X6719Y-1298D01*
X6720Y-1251D01*
X6720Y-841D01*
X6784Y-776D01*
X6780Y-800D01*
X6780Y-825D01*
X6779Y-848D01*
X6779Y-1298D01*
X6798Y-1342D01*
X6831Y-1376D01*
X6876Y-1394D01*
X6923Y-1395D01*
X7123Y-1395D01*
X7167Y-1376D01*
X7201Y-1343D01*
X7219Y-1298D01*
X7220Y-1251D01*
X7220Y-891D01*
X7291Y-820D01*
X7900Y-820D01*
X7984Y-803D01*
X7984Y-803D01*
X8055Y-755D01*
X8341Y-470D01*
X8401Y-494D01*
X8598Y-495D01*
X8780Y-419D01*
X8919Y-280D01*
X8994Y-98D01*
X8995Y98D01*
X8919Y280D01*
X8839Y360D01*
X9160Y360D01*
X9080Y280D01*
X9005Y98D01*
X9004Y-98D01*
X9080Y-280D01*
X9219Y-419D01*
X9401Y-494D01*
X9598Y-495D01*
X9780Y-419D01*
X9919Y-280D01*
X9994Y-98D01*
X9995Y98D01*
X9919Y280D01*
X9839Y360D01*
X10160Y360D01*
X10080Y280D01*
X10005Y98D01*
X10004Y-98D01*
X10080Y-280D01*
X10219Y-419D01*
X10401Y-494D01*
X10598Y-495D01*
X10780Y-419D01*
X10860Y-339D01*
X10860Y-504D01*
X10851Y-504D01*
X10565Y-505D01*
X10535Y-535D01*
X10535Y-965D01*
X10542Y-965D01*
X10542Y-1035D01*
X10535Y-1035D01*
X10535Y-1465D01*
X10565Y-1495D01*
X10851Y-1495D01*
X10860Y-1495D01*
X10860Y-1660D01*
X10780Y-1580D01*
X10598Y-1505D01*
X10465Y-1504D01*
X10465Y-1465D01*
X10465Y-1035D01*
X10465Y-965D01*
X10465Y-535D01*
X10435Y-505D01*
X10148Y-504D01*
X10101Y-505D01*
X10056Y-523D01*
X10023Y-557D01*
X10004Y-601D01*
X10005Y-935D01*
X10035Y-965D01*
X10465Y-965D01*
X10465Y-1035D01*
X10035Y-1035D01*
X10005Y-1065D01*
X10004Y-1398D01*
X10023Y-1442D01*
X10056Y-1476D01*
X10101Y-1494D01*
X10148Y-1495D01*
X10435Y-1495D01*
X10465Y-1465D01*
X10465Y-1504D01*
X10401Y-1504D01*
X10219Y-1580D01*
X10080Y-1719D01*
X10055Y-1780D01*
X7100Y-1780D01*
X7015Y-1796D01*
X6944Y-1844D01*
X6000Y-2788D01*
X4755Y-1544D01*
X4684Y-1496D01*
X4600Y-1480D01*
X3850Y-1480D01*
X3720Y-1480D01*
X3720Y-1251D01*
X3720Y-1115D01*
X3690Y-1085D01*
X3535Y-1085D01*
X3535Y-1365D01*
X3565Y-1395D01*
X3623Y-1395D01*
X3667Y-1376D01*
X3701Y-1343D01*
X3719Y-1298D01*
X3720Y-1251D01*
X3720Y-1480D01*
X3465Y-1480D01*
X3465Y-1365D01*
X3465Y-1085D01*
X3310Y-1085D01*
X3280Y-1115D01*
X3279Y-1251D01*
X3280Y-1298D01*
X3298Y-1343D01*
X3332Y-1376D01*
X3376Y-1395D01*
X3435Y-1395D01*
X3465Y-1365D01*
X3465Y-1480D01*
X2200Y-1480D01*
X835Y-1480D01*
X750Y-1445D01*
X649Y-1444D01*
X555Y-1483D01*
X483Y-1555D01*
X445Y-1649D01*
X444Y-1750D01*
X483Y-1844D01*
X555Y-1916D01*
X649Y-1954D01*
X750Y-1955D01*
X835Y-1920D01*
X2200Y-1920D01*
X3850Y-1920D01*
X4508Y-1920D01*
X5780Y-3191D01*
X5780Y-3325D01*
X5779Y-3348D01*
X5779Y-3798D01*
X5798Y-3842D01*
X5831Y-3876D01*
X5876Y-3894D01*
X5923Y-3895D01*
X6123Y-3895D01*
X6167Y-3876D01*
X6201Y-3843D01*
X6219Y-3798D01*
X6220Y-3751D01*
X6220Y-3301D01*
X6220Y-3301D01*
X6220Y-3191D01*
X7191Y-2220D01*
X10055Y-2220D01*
X10080Y-2280D01*
X10219Y-2419D01*
X10401Y-2494D01*
X10598Y-2495D01*
X10780Y-2419D01*
X10860Y-2339D01*
X10860Y-2660D01*
M02*
