M48
METRIC,TZ
T1C0.330
T2C1.016
%
G90
G05
T1
X-007112Y-003175
X-006350Y-007493
X-003810Y-010160
X-002540Y-007493
X001270Y-007747
X001778Y-004318
X006985Y-008763
X008128Y-003175
X011430Y-010160
X019050Y-010160
X019558Y-007620
X022352Y-008763
X022606Y-002540
T2
X-016510Y000000
X-015113Y-004445
X-015113Y-006985
X-013970Y000000
X-012573Y-004445
X-012573Y-006985
X-011430Y000000
X-010033Y-004445
X-010033Y-006985
X-008890Y000000
X-006350Y000000
X-003810Y000000
X-001270Y000000
X001270Y000000
X003810Y000000
X006350Y000000
X008890Y000000
X011430Y000000
X013970Y000000
X016510Y000000
X019050Y000000
X021590Y000000
X024130Y000000
X026670Y000000
X026670Y-002540
X026670Y-005080
X026670Y-007620
X026670Y-010160
T0
M30
