G04 (created by PCBNEW (2013-07-07 BZR 4022)-stable) date 2/6/2016 8:58:51 PM*
%MOIN*%
G04 Gerber Fmt 3.4, Leading zero omitted, Abs format*
%FSLAX34Y34*%
G01*
G70*
G90*
G04 APERTURE LIST*
%ADD10C,0.00590551*%
%ADD11C,0.0039*%
%ADD12C,0.004*%
%ADD13C,0.006*%
G04 APERTURE END LIST*
G54D10*
G54D11*
X2300Y-3150D02*
X2700Y-3150D01*
X2700Y-3150D02*
X2700Y-3750D01*
X2700Y-3750D02*
X2300Y-3750D01*
X1900Y-3750D02*
X1500Y-3750D01*
X1500Y-3750D02*
X1500Y-3150D01*
X1500Y-3150D02*
X1900Y-3150D01*
X8300Y-3150D02*
X8700Y-3150D01*
X8700Y-3150D02*
X8700Y-3750D01*
X8700Y-3750D02*
X8300Y-3750D01*
X7900Y-3750D02*
X7500Y-3750D01*
X7500Y-3750D02*
X7500Y-3150D01*
X7500Y-3150D02*
X7900Y-3150D01*
G54D10*
X7450Y-2600D02*
X7150Y-2600D01*
X7150Y-2600D02*
X7150Y-2000D01*
X7150Y-2000D02*
X7450Y-2000D01*
X3050Y-3200D02*
X3050Y-1400D01*
X3050Y-1400D02*
X7450Y-1400D01*
X7450Y-1400D02*
X7450Y-3200D01*
X7450Y-3200D02*
X3050Y-3200D01*
X1450Y-2600D02*
X1150Y-2600D01*
X1150Y-2600D02*
X1150Y-2000D01*
X1150Y-2000D02*
X1450Y-2000D01*
X-2950Y-3200D02*
X-2950Y-1400D01*
X-2950Y-1400D02*
X1450Y-1400D01*
X1450Y-1400D02*
X1450Y-3200D01*
X1450Y-3200D02*
X-2950Y-3200D01*
X-7000Y500D02*
X11000Y500D01*
X-7000Y-500D02*
X11000Y-500D01*
X11000Y500D02*
X11000Y-500D01*
X-7000Y500D02*
X-7000Y-500D01*
G54D12*
X2180Y-3673D02*
X2180Y-3788D01*
X2180Y-3730D02*
X1980Y-3730D01*
X2009Y-3750D01*
X2028Y-3769D01*
X2038Y-3788D01*
X1980Y-3550D02*
X1980Y-3530D01*
X1990Y-3511D01*
X2000Y-3502D01*
X2019Y-3492D01*
X2057Y-3483D01*
X2104Y-3483D01*
X2142Y-3492D01*
X2161Y-3502D01*
X2171Y-3511D01*
X2180Y-3530D01*
X2180Y-3550D01*
X2171Y-3569D01*
X2161Y-3578D01*
X2142Y-3588D01*
X2104Y-3597D01*
X2057Y-3597D01*
X2019Y-3588D01*
X2000Y-3578D01*
X1990Y-3569D01*
X1980Y-3550D01*
X1980Y-3359D02*
X1980Y-3340D01*
X1990Y-3321D01*
X2000Y-3311D01*
X2019Y-3302D01*
X2057Y-3292D01*
X2104Y-3292D01*
X2142Y-3302D01*
X2161Y-3311D01*
X2171Y-3321D01*
X2180Y-3340D01*
X2180Y-3359D01*
X2171Y-3378D01*
X2161Y-3388D01*
X2142Y-3397D01*
X2104Y-3407D01*
X2057Y-3407D01*
X2019Y-3397D01*
X2000Y-3388D01*
X1990Y-3378D01*
X1980Y-3359D01*
X2047Y-3207D02*
X2180Y-3207D01*
X2066Y-3207D02*
X2057Y-3197D01*
X2047Y-3178D01*
X2047Y-3149D01*
X2057Y-3130D01*
X2076Y-3121D01*
X2180Y-3121D01*
X8180Y-3673D02*
X8180Y-3788D01*
X8180Y-3730D02*
X7980Y-3730D01*
X8009Y-3750D01*
X8028Y-3769D01*
X8038Y-3788D01*
X7980Y-3550D02*
X7980Y-3530D01*
X7990Y-3511D01*
X8000Y-3502D01*
X8019Y-3492D01*
X8057Y-3483D01*
X8104Y-3483D01*
X8142Y-3492D01*
X8161Y-3502D01*
X8171Y-3511D01*
X8180Y-3530D01*
X8180Y-3550D01*
X8171Y-3569D01*
X8161Y-3578D01*
X8142Y-3588D01*
X8104Y-3597D01*
X8057Y-3597D01*
X8019Y-3588D01*
X8000Y-3578D01*
X7990Y-3569D01*
X7980Y-3550D01*
X7980Y-3359D02*
X7980Y-3340D01*
X7990Y-3321D01*
X8000Y-3311D01*
X8019Y-3302D01*
X8057Y-3292D01*
X8104Y-3292D01*
X8142Y-3302D01*
X8161Y-3311D01*
X8171Y-3321D01*
X8180Y-3340D01*
X8180Y-3359D01*
X8171Y-3378D01*
X8161Y-3388D01*
X8142Y-3397D01*
X8104Y-3407D01*
X8057Y-3407D01*
X8019Y-3397D01*
X8000Y-3388D01*
X7990Y-3378D01*
X7980Y-3359D01*
X8047Y-3207D02*
X8180Y-3207D01*
X8066Y-3207D02*
X8057Y-3197D01*
X8047Y-3178D01*
X8047Y-3149D01*
X8057Y-3130D01*
X8076Y-3121D01*
X8180Y-3121D01*
G54D13*
X6871Y-1571D02*
X6871Y-1814D01*
X6885Y-1842D01*
X6900Y-1857D01*
X6928Y-1871D01*
X6985Y-1871D01*
X7014Y-1857D01*
X7028Y-1842D01*
X7042Y-1814D01*
X7042Y-1571D01*
X7342Y-1871D02*
X7171Y-1871D01*
X7257Y-1871D02*
X7257Y-1571D01*
X7228Y-1614D01*
X7200Y-1642D01*
X7171Y-1657D01*
X4271Y-2121D02*
X4471Y-2121D01*
X4342Y-2421D01*
X4714Y-2221D02*
X4714Y-2421D01*
X4642Y-2107D02*
X4571Y-2321D01*
X4757Y-2321D01*
X4871Y-2421D02*
X4871Y-2121D01*
X4871Y-2264D02*
X5042Y-2264D01*
X5042Y-2421D02*
X5042Y-2121D01*
X5357Y-2392D02*
X5342Y-2407D01*
X5300Y-2421D01*
X5271Y-2421D01*
X5228Y-2407D01*
X5200Y-2378D01*
X5185Y-2350D01*
X5171Y-2292D01*
X5171Y-2250D01*
X5185Y-2192D01*
X5200Y-2164D01*
X5228Y-2135D01*
X5271Y-2121D01*
X5300Y-2121D01*
X5342Y-2135D01*
X5357Y-2150D01*
X5628Y-2121D02*
X5485Y-2121D01*
X5471Y-2264D01*
X5485Y-2250D01*
X5514Y-2235D01*
X5585Y-2235D01*
X5614Y-2250D01*
X5628Y-2264D01*
X5642Y-2292D01*
X5642Y-2364D01*
X5628Y-2392D01*
X5614Y-2407D01*
X5585Y-2421D01*
X5514Y-2421D01*
X5485Y-2407D01*
X5471Y-2392D01*
X5785Y-2421D02*
X5842Y-2421D01*
X5871Y-2407D01*
X5885Y-2392D01*
X5914Y-2350D01*
X5928Y-2292D01*
X5928Y-2178D01*
X5914Y-2150D01*
X5900Y-2135D01*
X5871Y-2121D01*
X5814Y-2121D01*
X5785Y-2135D01*
X5771Y-2150D01*
X5757Y-2178D01*
X5757Y-2250D01*
X5771Y-2278D01*
X5785Y-2292D01*
X5814Y-2307D01*
X5871Y-2307D01*
X5900Y-2292D01*
X5914Y-2278D01*
X5928Y-2250D01*
X6200Y-2121D02*
X6057Y-2121D01*
X6042Y-2264D01*
X6057Y-2250D01*
X6085Y-2235D01*
X6157Y-2235D01*
X6185Y-2250D01*
X6200Y-2264D01*
X6214Y-2292D01*
X6214Y-2364D01*
X6200Y-2392D01*
X6185Y-2407D01*
X6157Y-2421D01*
X6085Y-2421D01*
X6057Y-2407D01*
X6042Y-2392D01*
X871Y-1571D02*
X871Y-1814D01*
X885Y-1842D01*
X900Y-1857D01*
X928Y-1871D01*
X985Y-1871D01*
X1014Y-1857D01*
X1028Y-1842D01*
X1042Y-1814D01*
X1042Y-1571D01*
X1171Y-1600D02*
X1185Y-1585D01*
X1214Y-1571D01*
X1285Y-1571D01*
X1314Y-1585D01*
X1328Y-1600D01*
X1342Y-1628D01*
X1342Y-1657D01*
X1328Y-1700D01*
X1157Y-1871D01*
X1342Y-1871D01*
X-1728Y-2121D02*
X-1528Y-2121D01*
X-1657Y-2421D01*
X-1285Y-2221D02*
X-1285Y-2421D01*
X-1357Y-2107D02*
X-1428Y-2321D01*
X-1242Y-2321D01*
X-1128Y-2421D02*
X-1128Y-2121D01*
X-1128Y-2264D02*
X-957Y-2264D01*
X-957Y-2421D02*
X-957Y-2121D01*
X-642Y-2392D02*
X-657Y-2407D01*
X-700Y-2421D01*
X-728Y-2421D01*
X-771Y-2407D01*
X-800Y-2378D01*
X-814Y-2350D01*
X-828Y-2292D01*
X-828Y-2250D01*
X-814Y-2192D01*
X-800Y-2164D01*
X-771Y-2135D01*
X-728Y-2121D01*
X-700Y-2121D01*
X-657Y-2135D01*
X-642Y-2150D01*
X-371Y-2121D02*
X-514Y-2121D01*
X-528Y-2264D01*
X-514Y-2250D01*
X-485Y-2235D01*
X-414Y-2235D01*
X-385Y-2250D01*
X-371Y-2264D01*
X-357Y-2292D01*
X-357Y-2364D01*
X-371Y-2392D01*
X-385Y-2407D01*
X-414Y-2421D01*
X-485Y-2421D01*
X-514Y-2407D01*
X-528Y-2392D01*
X-214Y-2421D02*
X-157Y-2421D01*
X-128Y-2407D01*
X-114Y-2392D01*
X-85Y-2350D01*
X-71Y-2292D01*
X-71Y-2178D01*
X-85Y-2150D01*
X-100Y-2135D01*
X-128Y-2121D01*
X-185Y-2121D01*
X-214Y-2135D01*
X-228Y-2150D01*
X-242Y-2178D01*
X-242Y-2250D01*
X-228Y-2278D01*
X-214Y-2292D01*
X-185Y-2307D01*
X-128Y-2307D01*
X-100Y-2292D01*
X-85Y-2278D01*
X-71Y-2250D01*
X200Y-2121D02*
X57Y-2121D01*
X42Y-2264D01*
X57Y-2250D01*
X85Y-2235D01*
X157Y-2235D01*
X185Y-2250D01*
X200Y-2264D01*
X214Y-2292D01*
X214Y-2364D01*
X200Y-2392D01*
X185Y-2407D01*
X157Y-2421D01*
X85Y-2421D01*
X57Y-2407D01*
X42Y-2392D01*
M02*
